<?xml version="1.0" encoding="UTF-8"?>
<!DOCTYPE svg PUBLIC "-//W3C//DTD SVG 1.1//EN" "http://www.w3.org/Graphics/SVG/1.1/DTD/svg11.dtd">
<!-- Creator: CorelDRAW 2020 (64-Bit) -->
<svg xmlns="http://www.w3.org/2000/svg" xml:space="preserve" width="512px" height="512px" version="1.1" style="shape-rendering:geometricPrecision; text-rendering:geometricPrecision; image-rendering:optimizeQuality; fill-rule:evenodd; clip-rule:evenodd"
viewBox="0 0 512 512"
 xmlns:xlink="http://www.w3.org/1999/xlink"
 xmlns:xodm="http://www.corel.com/coreldraw/odm/2003">
 <defs>
  <style type="text/css">
   <![CDATA[
    .fil2 {fill:black}
    .fil3 {fill:#CCCCCC}
    .fil0 {fill:#E6E6E6}
    .fil1 {fill:red}
    .fil14 {fill:#FF1520}
    .fil4 {fill:white}
    .fil11 {fill:white}
    .fil6 {fill:#1D2C5E;fill-rule:nonzero}
    .fil12 {fill:#333333;fill-rule:nonzero}
    .fil10 {fill:#3C5AA6;fill-rule:nonzero}
    .fil8 {fill:#7D7F68;fill-rule:nonzero}
    .fil9 {fill:#C7A008;fill-rule:nonzero}
    .fil7 {fill:#FFCB05;fill-rule:nonzero}
    .fil15 {fill:white;fill-rule:nonzero}
    .fil16 {fill:url(#id0)}
    .fil13 {fill:url(#id1);fill-rule:nonzero}
    .fil5 {fill:url(#id2);fill-rule:nonzero}
   ]]>
  </style>
  <linearGradient id="id0" gradientUnits="userSpaceOnUse" x1="242.05" y1="123.13" x2="243.17" y2="57.56">
   <stop offset="0" style="stop-opacity:1; stop-color:#4D4D4D"/>
   <stop offset="0.329412" style="stop-opacity:1; stop-color:#737373"/>
   <stop offset="1" style="stop-opacity:1; stop-color:#999999"/>
  </linearGradient>
  <linearGradient id="id1" gradientUnits="userSpaceOnUse" x1="293.95" y1="71.25" x2="300.11" y2="98.8">
   <stop offset="0" style="stop-opacity:1; stop-color:#999999"/>
   <stop offset="0.278431" style="stop-opacity:1; stop-color:#CCCCCC"/>
   <stop offset="1" style="stop-opacity:1; stop-color:white"/>
  </linearGradient>
  <linearGradient id="id2" gradientUnits="userSpaceOnUse" x1="728.87" y1="61.84" x2="737.2" y2="52.86">
   <stop offset="0" style="stop-opacity:1; stop-color:#0070B6"/>
   <stop offset="1" style="stop-opacity:1; stop-color:#1D2C5E"/>
  </linearGradient>
 </defs>
 <g id="Layer_x0020_1">
  <metadata id="CorelCorpID_0Corel-Layer"/>
  <path class="fil0" d="M0 512l512 0 0 -195.27c-4.01,0.04 -7.99,0.15 -12.01,0.15 -180.37,0 -350.4,-44.14 -499.99,-122.13l0 317.25z"/>
  <path class="fil1" d="M512 316.73l0 -316.73 -512 0 0 194.75c149.59,77.99 319.62,122.13 499.99,122.13 4.02,0 8,-0.11 12.01,-0.15z"/>
  <ellipse class="fil0" cx="256.96" cy="283.36" rx="79.16" ry="79.15"/>
  <path class="fil2" d="M256.96 168.21c63.6,0 115.15,51.55 115.15,115.15 0,2.65 -0.1,5.27 -0.27,7.88 42.01,5.04 84.78,7.64 128.15,7.64 4.02,0 8,-0.11 12.01,-0.15l0 35c-4.01,0.04 -7.99,0.15 -12.01,0.15 -46,0 -91.34,-2.83 -135.86,-8.31 -16.84,42.72 -58.47,72.94 -107.17,72.94 -63.59,0 -115.15,-51.55 -115.15,-115.15 0,-3.03 0.12,-6.02 0.35,-8.99 -49.05,-16.86 -96.53,-37.09 -142.16,-60.42l0 -39.55c48.01,25.58 98.2,47.59 150.23,65.68 17.11,-42.15 58.45,-71.87 106.73,-71.87zm79.1 118.12l0 -0.05 0 -0.04 0 -0.05 0 -0.05 0 -0.04 0.03 -0.98 0.01 -0.04 0 -0.05 0 -0.04 0 -0.05 0 -0.05c0.01,-0.51 0.02,-1.02 0.02,-1.53 0,-43.71 -35.44,-79.15 -79.16,-79.15 -0.61,0 -1.22,0.01 -1.83,0.02l-0.55 0.02c-0.44,0.01 -0.89,0.03 -1.34,0.05l-0.54 0.03c-0.59,0.03 -1.18,0.06 -1.77,0.11l-0.33 0.03c-0.5,0.03 -1,0.08 -1.49,0.13l-0.56 0.05c-0.42,0.05 -0.85,0.1 -1.27,0.15l-0.58 0.07c-0.57,0.08 -1.14,0.15 -1.7,0.24l-0.44 0.07c-0.45,0.07 -0.9,0.15 -1.34,0.22l-0.54 0.1 -1.3 0.25 -0.52 0.1c-0.56,0.12 -1.11,0.24 -1.66,0.36l-0.45 0.11c-0.43,0.1 -0.85,0.2 -1.27,0.31l-0.58 0.15 -1.24 0.33 -0.47 0.14c-0.55,0.15 -1.09,0.31 -1.62,0.48l-0.5 0.16 -1.14 0.36 -0.64 0.22 -1.06 0.37 -0.78 0.29c-0.43,0.16 -0.86,0.32 -1.29,0.49l-0.65 0.26 -0.93 0.37 -0.73 0.31c-0.41,0.18 -0.81,0.35 -1.22,0.54l-0.24 0.1 -0.01 0.01 -0.13 0.06c-0.46,0.2 -0.91,0.41 -1.35,0.63l-0.66 0.32 -0.87 0.43 -0.7 0.36c-0.39,0.2 -0.79,0.41 -1.17,0.62l-0.74 0.4 -0.87 0.48 -0.77 0.45 -0.64 0.38 -0.84 0.5 -0.21 0.13c-0.62,0.39 -1.23,0.78 -1.84,1.18l-0.49 0.32 -0.85 0.58 -0.49 0.33 -0.83 0.59 -0.01 0c-0.38,0.28 -0.76,0.55 -1.13,0.83l-0.85 0.65 -0.41 0.31 -0.84 0.66 -0.4 0.32c-0.96,0.77 -1.89,1.56 -2.81,2.37l-0.22 0.2c-0.3,0.27 -0.6,0.54 -0.9,0.82l-0.25 0.23c-0.96,0.89 -1.89,1.8 -2.79,2.72l-0.07 0.07c-0.31,0.32 -0.62,0.64 -0.93,0.97l-0.05 0.06c-0.92,0.97 -1.8,1.96 -2.67,2.98l-0.2 0.24c-1.17,1.39 -2.28,2.81 -3.35,4.27l-0.06 0.07c-0.81,1.11 -1.59,2.25 -2.35,3.41l-0.02 0.03c-2.04,3.13 -3.87,6.41 -5.46,9.83l-0.04 0.09c-4.69,10.11 -7.31,21.38 -7.31,33.26 0,16.25 4.9,31.35 13.29,43.91l0.04 0.06c0.31,0.46 0.62,0.92 0.94,1.37l0.14 0.2c0.33,0.46 0.65,0.92 0.99,1.37l0.1 0.13c0.31,0.42 0.63,0.84 0.95,1.26l0.2 0.27c0.32,0.4 0.63,0.79 0.95,1.19l0.22 0.26c0.29,0.37 0.59,0.72 0.89,1.08l0.35 0.41c0.28,0.33 0.58,0.67 0.87,1l0.35 0.39c0.31,0.34 0.62,0.68 0.93,1.02l0.34 0.35c0.32,0.35 0.65,0.69 0.98,1.03l0.29 0.3c0.34,0.34 0.69,0.68 1.03,1.02l0.32 0.31c0.33,0.32 0.67,0.64 1.01,0.96l0.35 0.32c0.34,0.32 0.68,0.62 1.03,0.93l0.38 0.34 0.95 0.82 0.54 0.46 0.86 0.71 0.6 0.48 0.91 0.71 0.54 0.42 0.95 0.7 0.59 0.43 0.93 0.67 0.62 0.42 0.91 0.62 0.65 0.43 0.98 0.63 0.58 0.36c0.33,0.2 0.66,0.41 0.99,0.6l0.7 0.42 0.87 0.5 0.84 0.47 0.81 0.44 0.82 0.44 0.89 0.45 0.79 0.4 0.91 0.44 0.86 0.4 0.83 0.38c0.3,0.14 0.6,0.26 0.91,0.39l0.87 0.38 0.89 0.36 0.86 0.35 0.92 0.35 0.88 0.32 0.94 0.33 0.88 0.31 0.9 0.29 0.95 0.3 0.86 0.26 0.99 0.28c0.31,0.09 0.64,0.18 0.95,0.26l0.89 0.24 1.06 0.26 0.82 0.19c0.32,0.08 0.64,0.14 0.96,0.21 0.34,0.07 0.67,0.15 1,0.22l0.89 0.16 0.99 0.19c0.35,0.06 0.7,0.12 1.04,0.17l0.91 0.15 1.03 0.15 0.92 0.12c0.41,0.05 0.82,0.1 1.23,0.14l0.72 0.08c0.35,0.04 0.7,0.06 1.06,0.1 0.32,0.03 0.65,0.06 0.98,0.08l0.59 0.04c0.46,0.03 0.93,0.06 1.39,0.09l0.02 0c0.65,0.03 1.3,0.05 1.95,0.07l0.04 0c0.67,0.02 1.33,0.03 2,0.03 0.61,0 1.21,-0.01 1.81,-0.03l0.5 -0.01c0.49,-0.01 0.98,-0.03 1.46,-0.05l0.41 -0.02c0.57,-0.03 1.13,-0.07 1.69,-0.11l0.55 -0.04c0.47,-0.04 0.94,-0.08 1.4,-0.13l0.4 -0.04c0.58,-0.06 1.15,-0.12 1.73,-0.19l0.46 -0.07 1.33 -0.18 0.53 -0.08c0.57,-0.09 1.14,-0.18 1.7,-0.28l0.22 -0.04c0.48,-0.09 0.97,-0.18 1.45,-0.28l0.62 -0.13c0.46,-0.09 0.92,-0.19 1.38,-0.3l0.24 -0.05 0.05 -0.01c0.54,-0.13 1.08,-0.26 1.63,-0.4l0.49 -0.13c0.43,-0.11 0.85,-0.22 1.28,-0.34l0.49 -0.14c0.52,-0.15 1.04,-0.3 1.56,-0.47l0.46 -0.14c0.41,-0.13 0.81,-0.26 1.22,-0.39l0.51 -0.18c0.51,-0.17 1.01,-0.35 1.51,-0.53l0.55 -0.2 1.05 -0.4 0.57 -0.22c0.5,-0.2 1,-0.41 1.5,-0.62l0.34 -0.15 1.2 -0.52 0.59 -0.27 1 -0.46 0.75 -0.36c0.39,-0.19 0.78,-0.39 1.17,-0.58l0.59 -0.31 0.91 -0.48 0.62 -0.33c0.42,-0.23 0.85,-0.47 1.26,-0.71l0.67 -0.38 0.76 -0.45 0.71 -0.43 0.8 -0.5 1.05 -0.68 0.72 -0.47 0.7 -0.47 0.58 -0.41c0.44,-0.3 0.88,-0.61 1.31,-0.92l0.52 -0.39 0.75 -0.55 0.58 -0.45c0.43,-0.33 0.85,-0.66 1.27,-1l0.46 -0.37 0.77 -0.64 0.43 -0.36 0.77 -0.67c0.33,-0.28 0.66,-0.57 0.99,-0.87l0.75 -0.69 0.38 -0.36 0.78 -0.74 0.06 -0.06c0.6,-0.57 1.18,-1.15 1.75,-1.74l0.11 -0.11 0.81 -0.86 0.23 -0.23c0.49,-0.53 0.98,-1.07 1.45,-1.61l0.19 -0.21c0.26,-0.29 0.52,-0.59 0.77,-0.89l0.14 -0.17c0.81,-0.95 1.58,-1.91 2.34,-2.9l0.13 -0.16c0.77,-1.01 1.52,-2.04 2.24,-3.09l0.04 -0.05c1,-1.44 1.94,-2.92 2.84,-4.43l0.02 -0.03c6.58,-11.04 10.54,-23.81 11.05,-37.47z"/>
  <path class="fil3" d="M191.87 107.2l-7.72 4.05 -19.72 2.92 -0.16 -1.81c-1.19,0.2 -2.4,0.3 -3.61,0.28l-6.89 4.63 -18.86 5.96 -12.11 -27.47 -2.17 0.93 -13.67 -23.07 6.78 -6.9c12.85,-8.15 32.87,-15.59 45.71,-3.51l5.64 -3.04 23 -7.35 6.38 5.66 9.92 -11.41 9.71 -5.01 14.4 21.49 -4.19 2.26c2.29,2.41 4.41,5.25 6.51,7.85l131.35 -22.96 2 1.69 15.5 -3.7 1.07 0.9 17.44 -3 8.78 7.54 -24.19 39.96 -21.3 4.61 -0.96 -0.77 -10.81 3.64 -1.61 -1.24 -15.86 5.02 -3.23 -2.45 -21.75 5.46 -0.97 -0.79 -13.3 4.4 -3.13 -2.36 -13.94 3.62 -1.58 -1.27 -22.18 5.23 -14.5 4.33 -3.16 -2.38 -13.93 3.63 -8.14 -6.56 2.05 -7.16 -9.03 4.88 -13.57 -6.73z"/>
  <path class="fil4" d="M205.34 108.16l-18.47 -9.15 0 5.04 -4.32 2.26 -13.51 2 -0.27 -2.98c-4.3,2.53 -9.55,3.06 -13.96,0.66l0.9 3.82 -4.18 2.8 -13.79 4.36 -12.3 -27.91 -2.7 1.16 -9.37 -15.82 3.61 -3.68 2.72 -1.72c2.19,-1.39 4.5,-2.57 6.88,-3.59 10.62,-4.53 27.5,-5.93 33.03,6.83 0.65,1.52 0.99,3.12 1.05,4.76 0.87,-0.36 1.78,-0.64 2.71,-0.83l-0.44 -9.02 4.17 -2.25 19.77 -6.32 8.06 7.15 12.68 -14.56 4.78 -2.47 8.72 13.01 -6.36 3.42c3.52,1.41 5.92,4.1 8.32,7.07l1.07 1.33 -3.94 4.25 7.06 6.36c-4.49,4.63 -10.73,10.61 -17.09,12.27l0 9.14 -4.83 2.61z"/>
  <path id="polygon25" class="fil5" d="M208.85 52.75l-11.87 13.61 2.96 -1.51 11.8 -13.59 -2.89 1.49z"/>
  <path id="polygon62" class="fil6" d="M184.19 62.98l-0.56 1.05 -0.08 4.15 3.53 -6.77 -2.89 1.57zm-19.23 5.31l0.41 8.46 2.73 -0.69 0.17 1.87c1.05,0.15 2.1,0.44 3.1,0.89l-0.4 -4.3 -2.69 0.69 -0.41 -8.48 -2.91 1.56zm5.46 33.23c-8.46,5.04 -19.57,0.02 -18.26,-10.73 -0.84,0.8 -1.74,1.57 -2.72,2.29l1.64 6.3c4.04,7.87 13.41,7.67 19.35,2.32l0.39 4.35 11.11 -1.64 2.97 -1.56 -11.15 1.64 -0.48 -5.17c-0.9,0.88 -1.85,1.61 -2.85,2.2zm34.88 4.42l-20.41 -10.11 -0.01 -2.98 23.32 11.52 -2.9 1.57zm-78.84 -19.47l12.41 28.15 11.79 -3.8 2.88 -1.94 -11.77 3.79 -12.9 -28.79 -2.92 1.42 -7.71 -13.03 -2.4 2.43 7.71 13.02 2.91 -1.25zm91.67 3.28c-2.81,1.89 -5.93,3.13 -9.94,3.47l0 1.77c4.76,-0.7 7.14,-3.03 9.94,-5.24zm-26.56 -7.43c-0.04,-0.68 -0.05,-1.37 -0.03,-2.04l0 0 1.5 -1.46c-0.13,1.34 -0.06,2.74 0.22,4.16l-1.69 -0.66zm7.5 -13.49l-2.27 1.2 0.39 0.35c1.34,-1.26 2.94,-2.3 4.79,-3.05l-2.03 -2.47 -2.97 1.5 2.09 2.47z"/>
  <g id="g84">
   <path id="path86" class="fil7" d="M223.66 84.28l-6.21 5.34c-1.87,1.12 -4.02,1.96 -6.56,2.58 -0.88,0.21 -1.81,0.36 -2.76,0.44l-0.53 0.05 0 0.53 0 10.21 -22.46 -11.1 -0.84 -0.42 0 0.95 0.01 9.49 -10.04 1.48 -0.42 -4.56 -0.12 -1.22 -0.87 0.86c-1.33,1.3 -2.82,2.3 -4.44,2.99 -1.66,0.71 -3.37,1.06 -5.08,1.06 -1.72,0 -3.32,-0.36 -4.78,-1.06 -2.71,-1.3 -4.66,-3.66 -5.5,-6.64 -0.4,-1.4 -0.51,-2.88 -0.32,-4.39l0.2 -1.62 -1.18 1.12c-0.83,0.79 -1.73,1.54 -2.66,2.24l-0.32 0.23 0.1 0.38 3.38 12.99 0.6 2.3 -2.27 0.72 -6.37 2.04 -2.13 0.68 0 0 0 0.01 -0.92 -2.05 -11.77 -26.27 -0.24 -0.54 -0.53 0.25 -0.36 0.17 -2.09 1.02c-0.31,-0.51 -0.83,-1.38 -1.18,-1.98l-4.74 -8.01 -1.24 -2.09 2.05 -1.3c1.94,-1.23 4.13,-2.38 6.51,-3.39 4.74,-2.02 9.58,-3.09 13.99,-3.09 1.46,0 2.86,0.12 4.18,0.35 2.2,0.25 4.24,0.97 5.92,2.09 2.5,1.4 4.47,3.57 5.59,6.14 0.91,2.11 1.09,4.59 0.51,7.15l-0.34 1.51 1.25 -0.91c0.84,-0.61 1.76,-1.13 2.73,-1.55 1.66,-0.71 3.39,-1.07 5.12,-1.07 1.63,0 3.18,0.33 4.59,0.96l0.92 0.41 -0.1 -0.99 -0.39 -4.31 -0.07 -0.68 -0.66 0.17 -2 0.52 -0.34 -7.33 14.6 -4.66 -0.12 5.69 1.1 0.28 3.19 -6.11 9.55 8.47 0.4 0.36 0.39 -0.37c1.31,-1.23 2.86,-2.21 4.61,-2.93l0.73 -0.3 -0.5 -0.61 -1.72 -2.1 10.96 -12.64 5.75 8.57 -10.75 5.78 2.22 0.04c5.79,0.12 8.54,2.68 11.9,6.82l-4.24 4.51 7.11 6.34zm-78.71 -7.18c-0.33,0 -0.67,0.03 -1.01,0.09l-0.43 0.09 -0.64 0.12 0.19 0.62 0.13 0.41 1.82 5.96 0.18 0.57 0.27 0.86 0.67 -0.6 0.45 -0.4c1.77,-1.59 2.39,-3.2 2.01,-5.23 -0.23,-1.22 -1.17,-1.82 -1.72,-2.08 -0.57,-0.27 -1.21,-0.41 -1.92,-0.41l0 0 0 0zm48.82 0.2l-1.14 1.1 -2.99 2.92 -0.66 0.63 0.85 0.33 3.22 1.24 0.99 0.38 -0.21 -1.04c-0.26,-1.34 -0.33,-2.68 -0.21,-3.98l0.15 -1.58 0 0zm13.09 -3.32c-1.24,0 -2.44,0.54 -3.3,1.47 -1.29,1.41 -1.55,3.5 -0.62,5.19l0.24 0.46 0.39 0.74 0.56 -0.62 0.35 -0.4 5.3 -6.05c-0.96,-0.36 -1.87,-0.79 -2.92,-0.79l0 0 0 0z"/>
  </g>
  <path id="path88" class="fil8" d="M213.59 81.42c-0.04,0.04 -0.08,0.08 -0.11,0.13 0.04,-0.04 0.08,-0.07 0.13,-0.11l-0.02 -0.02 0 0z"/>
  <path id="polygon90" class="fil8" d="M217.38 77.91l2.2 -2.35 -0.75 0.8 0.02 -0.1 -0.66 0.7 -2.2 2.34 2.06 1.85 0.37 -2.31 1.02 0.92 -2.06 -1.85z"/>
  <path id="path94" class="fil8" d="M190.04 81.73l0.04 0.02 -0.04 -0.02z"/>
  <path id="polygon100" class="fil9" d="M181.04 75.95l5.93 -8.33 -0.24 -0.22 -5.72 8.03 0.03 0.52z"/>
  <path id="path164" class="fil10" d="M170.38 85.32c0,1.53 -1.4,2.77 -3.11,2.77 -1.71,0 -3.11,-1.24 -3.11,-2.77 0,-1.43 1.23,-2.61 2.8,-2.75 -0.3,-0.06 -0.61,-0.09 -0.94,-0.09 -2.87,0 -5.13,2.13 -5.13,4.66 0,2.71 2.27,4.83 5.09,4.83 2.87,0 5.13,-2.13 5.13,-4.83 0,-0.93 -0.31,-1.81 -0.84,-2.54 0.07,0.22 0.11,0.46 0.11,0.72zm-29.1 -8.16l3.41 11.15c11.05,-7.1 2.97,-14.63 -3.41,-11.15zm61.55 -1.96c-2.29,2.49 -1.78,6.3 0.93,8.24l7.23 -8.19c-2.26,-2.37 -5.91,-2.52 -8.16,-0.05zm0.94 5.42c-1.58,-2.9 1.32,-6.2 4.4,-5.01l-4.4 5.01zm20.65 3.61l-7.04 -6.32 4.15 -4.47c-3.57,-4.43 -6.38,-7.28 -12.63,-7.41l9.36 -5.03 -6.52 -9.74 -11.8 13.59 2.04 2.48c-1.85,0.75 -3.45,1.79 -4.79,3.05l-10.11 -8.97 -3.53 6.77 0.13 -6.51 -15.81 5.05 0.41 8.49 2.69 -0.69 0.4 4.3c-4.29,-1.93 -9.31,-0.98 -13.03,1.72 1.85,-8.19 -4.54,-14.92 -12.49,-16.09 -10.07,-1.49 -19.39,2.6 -27.62,7.82 1.25,2.11 7.71,13.04 7.72,13.03l2.92 -1.42 12.9 28.79 11.79 -3.77 -4.12 -15.82c0.98,-0.72 1.88,-1.49 2.72,-2.29 -1.46,12.01 12.58,16.87 21.11,8.53l0.48 5.17 11.15 -1.64 -0.02 -10 23.31 11.52 0 -11.15c7.15,-0.6 11.45,-4.07 16.23,-8.99zm-13.19 -28.64l3.45 4.69 -9.86 4.89 -0.68 -1.04 7.09 -8.54zm-65.33 36.15l3.93 15.1 -6.37 2.04 -13.07 -29.2c-0.71,0.37 -2.03,1 -3.23,1.59l-4.74 -8c6.37,-4.06 15.33,-6.78 22.89,-5.77 14.36,1.94 12.33,16.99 0.59,24.24zm21.69 8.01c-5.52,2.35 -11.05,0 -12.53,-5.24 -2.49,-8.84 8.87,-18.09 16.57,-12.86 6.91,4.69 2.95,15.1 -4.04,18.1zm37.67 -0.02l-23.12 -11.57 0.04 12.12 -5.98 0.82 -0.41 -5c2.82,-4.83 2.86,-11.07 -1.28,-15.14l-0.86 -10.18 -2.68 0.7 -0.12 -2.58 9.6 -2.86 0.59 9.91 7.08 -9.94 6.91 6.58 -9.67 10.19 9.09 3.6c2.14,4.06 6.33,6.39 10.81,6.83l0 6.52zm-12 -16.75l-3.22 -1.25 3 -2.91c-0.13,1.34 -0.06,2.74 0.22,4.16zm14.92 7.21c-9.71,0.92 -15.74,-8.41 -10.4,-15.97 4.28,-6.15 14.71,-7.19 19.66,-1.11l-9.62 10.25c2.58,0.48 5.56,-1.46 7.16,-3.34l5.01 4.52c-3.07,3.17 -7.41,5.24 -11.81,5.65zm-64.06 -11.61c4.12,-0.74 4.77,3.31 1.81,5.95 0,0 -1.65,-5.4 -1.81,-5.95z"/>
  <path id="path122" class="fil9" d="M194.45 86.38l-9.09 -3.6 -1.29 1.4 8.98 3.59c2.16,4.07 6.32,6.39 10.82,6.83l0 4.43 1.39 0.7 0 -6.52c-4.48,-0.44 -8.67,-2.77 -10.81,-6.83zm-71.77 -12.66c7.98,-4.53 27.34,-10.04 30.88,1.94 1.51,5.11 -1.82,10.49 -5.75,14.77 10,-7.61 11.04,-21.1 -2.5,-22.93 -7.56,-1.01 -16.52,1.71 -22.89,5.77l0.26 0.45zm27.15 33.12l-3.93 -15.1 -1.52 1.07 3.88 14.53 1.57 -0.5zm-0.39 -23.19c-0.8,1.5 -2.31,3.09 -4.75,4.66l-3.41 -11.15 -1 1.29 3.39 11.17c1.67,-1.08 4.72,-3.65 5.77,-5.97zm19.44 2.33c0.17,0.59 0.13,1.21 -0.13,1.77l0 0 0.02 0c0.03,-0.02 0.07,-0.04 0.13,-0.07 0.89,-0.49 1.48,-1.36 1.48,-2.36 0,-0.26 -0.04,-0.5 -0.11,-0.72l-1.39 1.38zm-3.31 -2.02c-0.01,0.02 1.34,-1.34 1.37,-1.39 -1.03,0.1 -1.92,0.65 -2.4,1.43 -0.07,0.11 -0.11,0.2 -0.14,0.26l0 0.01 -0.01 0.01 0 0.01 -0.01 0.01c0.36,-0.18 0.76,-0.3 1.19,-0.34zm5.28 -15.06l0.04 0.96 8.17 -2.43 0.63 10.59 1.35 -2.07 -0.59 -9.91 -9.6 2.86zm-13.01 15.49c9.87,-8.32 21.61,2.97 13.16,13.12 4.65,-4.29 6.31,-12 0.63,-15.86 -4.52,-3.06 -10.29,-1.15 -13.79,2.74zm4.94 -0.86c-2.29,1.48 -3.28,3.45 -3.28,5.01 0,2.69 2.36,4.85 5.18,4.85 1.34,0 3.78,-0.71 5.38,-3.3l-0.01 0.01c-0.93,1.14 -2.4,1.87 -4.07,1.87 -2.82,0 -5.09,-2.12 -5.09,-4.83 0,-1.44 0.73,-2.75 1.89,-3.61zm32.25 -10.94l-6.91 -6.58 -1.15 1.61 6.76 6.35 1.3 -1.38zm17.88 -11.44l1.77 -0.87 -3.45 -4.69 -1.28 1.54 2.96 4.02zm-5.09 22.21l-1.37 1.46c2.43,0.47 5.4,-1.54 7.17,-3.37l4.92 4.43 0 0c0.51,-0.42 1,-0.87 1.45,-1.34l-5.01 -4.52c-1.6,1.88 -4.58,3.82 -7.16,3.34zm-9.53 -9.82c5.08,-4.28 13.43,-4.37 17.79,1.02l1.36 -1.45c-4.77,-5.85 -14.6,-5.11 -19.15,0.43zm4.51 10.98l0.96 -1.08c-2.71,-1.94 -3.22,-5.75 -0.93,-8.24 0.12,-0.13 0.45,-0.41 0.53,-0.51 -3.23,2.13 -3.66,7.71 -0.56,9.83zm-22.05 5.08l0.04 10.87 1.39 -0.19 -0.04 -12.12 -1.39 1.44z"/>
  <path id="path158" class="fil8" d="M144.51 79.88c2.17,0.47 2.51,2.67 1.42,4.65 2.96,-2.64 2.31,-6.69 -1.81,-5.95 0.04,0.15 0.19,0.65 0.39,1.3z"/>
  <path id="path156" class="fil8" d="M203.98 76.89c0.95,-0.56 2.37,-0.68 3.39,-0.37l0.8 -0.91c-1.69,-0.65 -3.32,0.04 -4.19,1.28z"/>
  <path class="fil11" d="M379.93 55.84l0.51 -0.82 16.18 -2.79 3.49 2.99 -20.69 34.17 -16.6 3.6 -1.24 -1.01 -10.89 3.67 -1.56 -1.21 -15.88 5.03 -3.07 -2.33 -21.65 5.43 -1.16 -0.94 -13.42 4.44 -2.96 -2.23 -13.83 3.59 -1.53 -1.23 -22.17 5.24 -0.73 -0.59 -14.12 4.76 -2.97 -2.24 -13.83 3.6 -3.33 -2.68 9.9 -34.64 11.83 -2.7 1.8 1.5 1.26 -1.97 11.7 -1.51 1.63 1.37 0.39 -1.98 20.29 -3.5 2.89 2.43 0.32 8.07 3.24 -11.24 11.83 -2.7 1.79 1.5 1.28 -1.98 11.65 -1.44 2.87 2.27 0.86 -3.49 20.49 -3.65 2.35 1.97 0.49 -2.35 23.29 -3.92 2.16 1.84 15.51 -3.71 1.63 1.38zm-16.25 3.16l-3.15 20.26 2.46 4.44 6.08 -10.06 -5.39 -14.64z"/>
  <path class="fil12" d="M379.28 57.92l0.34 2.23 2.05 -3.3 14.36 -2.48 1.47 1.27 -19.36 31.97 -14.81 3.21 -1.35 -1.09 -10.91 3.67 -1.55 -1.2 -0.96 -2.58 -0.3 2.99 -14.62 4.63 -1.57 -1.19 0.31 -1.54 -23.36 5.87 -1.24 -1.01 -13.46 4.46 -1.57 -1.18 1.14 -5.68 -1.24 -0.92 -0.25 -0.74 -1.22 6.4 -13.55 3.52 -1.5 -1.21 -22.18 5.24 -0.81 -0.66 -14.17 4.76 -1.57 -1.18 1.14 -5.67 -1.49 -1.67 -1.22 6.4 -13.55 3.53 -1.5 -1.21 9.21 -32.21 9.7 -2.22 1.5 1.26 0.51 2.26 2.76 -4.3 9.9 -1.27 1.5 1.25 -2.01 22.29 4.85 -24.52 18 -3.1 1.5 1.26 0.35 8.85 -4.27 1.55 0.28 0.23 -1.63 8.1 2.45 -0.84 1.49 1.26 0.28 6.84 8.19 -28.43 9.7 -2.22 1.5 1.26 0.5 2.26 2.77 -4.3 9.89 -1.22 1.51 1.2 -2.15 23.89 6.59 -26.66 18.28 -3.25 1.51 1.25 -1.55 23.13 5.14 -25.16 21.01 -3.53 1.49 1.26 -2.7 17.38 -1.64 0.28 5.72 10.32 8.38 -13.86 -5.29 -14.38 11.78 -2.81 1.5 1.26z"/>
  <path class="fil13" d="M376.46 58.37l-8.46 2.14 4.81 13.33 -8.35 13.82 11.39 -2.47 17.55 -28.98 -10.99 1.89 -3.94 6.33 -2.01 -6.06zm-27.92 9.84l-0.16 3.62 -1.18 0.32 0.42 -3.95 0.92 0.01zm-117.51 14.3l-8.39 29.18 10.54 -2.75 2.5 -12.98c0.13,-0.03 1.97,6.06 2.1,6.45l4.34 -6.81 -2.95 14.58 11.17 -3.69 2.51 -27.82 -7.68 0.98 -5.05 7.87 -1.52 -6.74 -7.57 1.73zm28.8 -5.22l-5.72 28.96 20.24 -4.96 -0.28 -7.29 -9.88 3.36 0.33 -2.99 5.47 -2.24 1.38 -6.83 -5.7 0.98 0.27 -1.79 9.69 -3.51 -0.25 -6.37 -15.55 2.68zm26.55 -4.31l-8.4 29.17 10.54 -2.75 2.5 -12.98c0.13,-0.02 1.98,6.06 2.1,6.46l4.35 -6.82 -2.95 14.58 11.17 -3.69 2.5 -27.82 -7.67 0.99 -5.05 7.86 -1.52 -6.73 -7.57 1.73zm53.77 -9.78l-6.37 31.16c0.05,-0.01 3.96,-1.32 11.71,-3.94l1.02 -10.26 3.91 10.33 9.74 -3.27 -6.66 -12.04 2.65 -0.46 2.26 -14.59 -18.26 3.07z"/>
  <path class="fil14" d="M331.44 79.68c0.34,-5.08 0.68,-10.16 1.02,-15.24 -5.25,0.93 -10.49,1.86 -15.74,2.79 -0.92,3.76 -1.85,7.52 -2.78,11.27 2.56,0.81 5.34,1.33 8.29,1.54 2.95,0.2 6.04,0.09 9.21,-0.36z"/>
  <path class="fil11" d="M331.44 79.68c-0.28,4.09 -0.55,8.19 -0.83,12.29 -7.11,1.79 -14.22,3.58 -21.33,5.36 1.56,-6.27 3.11,-12.55 4.66,-18.83 2.56,0.81 5.34,1.33 8.29,1.54 2.95,0.2 6.04,0.09 9.21,-0.36z"/>
  <path class="fil2" d="M331.37 80.63c-1.26,0.18 -2.5,0.32 -3.74,0.4 -3.45,7.97 -12.93,7.38 -10.75,-0.62 -1.11,-0.21 -2.18,-0.48 -3.22,-0.78 0.19,-0.75 0.37,-1.49 0.55,-2.23 1.13,0.36 2.31,0.66 3.52,0.89 3.29,-6.07 11.8,-6.95 10.53,0.61 1.08,-0.07 2.16,-0.18 3.25,-0.34 -0.04,0.68 -0.09,1.37 -0.14,2.07z"/>
  <path class="fil11" d="M323.37 75.59c2.09,-0.42 3.54,1.02 3.26,3.46 -0.29,2.43 -2.36,5.02 -4.67,5.54 -2.3,0.52 -3.77,-1.31 -3.28,-3.84 0.49,-2.54 2.59,-4.74 4.69,-5.16z"/>
  <path class="fil15" d="M376.46 58.37l-8.46 2.14 4.81 13.33 -8.35 13.82 2.09 -0.45 7.45 -12.34 -4.81 -13.33 7.68 -1.94 -0.41 -1.23zm16.1 -0.77l0.84 -1.39 -10.99 1.89 -3.94 6.33 0.64 1.93 4.49 -7.22 8.96 -1.54zm-43.1 10.62l0.1 3.3 -1.18 0.31 0.16 -3.62 0.92 0.01zm-118.43 14.29l-8.39 29.18 1.61 -0.42 7.98 -27.72 6.65 -1.52 -0.28 -1.25 -7.57 1.73zm4.65 13.45c0.54,1.7 2.02,6.23 2.1,6.45l0.58 -0.92c-0.59,-1.91 -2.3,-7.09 -2.39,-7.07l-0.29 1.54zm6.44 -0.36l-2.95 14.58 1.5 -0.5 3.5 -17.3 -2.05 3.22zm10.62 -15.73l0.11 -1.2 -7.68 0.98 -5.05 7.87 0.49 2.14 5.75 -8.98 6.38 -0.81zm7.09 -2.58l-5.72 28.96 1.47 -0.36 5.45 -27.56 14.4 -2.49 -0.05 -1.23 -15.55 2.68zm14.29 18.13l-0.05 -1.42 -9.88 3.36 -0.16 1.5 10.09 -3.44zm-3.01 -8.83l0.26 -1.29 -5.7 0.98 -0.19 1.28 5.63 -0.97zm15.27 -13.61l-8.4 29.17 1.61 -0.42 7.98 -27.72 6.66 -1.52 -0.28 -1.24 -7.57 1.73zm4.64 13.44c0.54,1.7 2.03,6.24 2.1,6.46l0.59 -0.93c-0.59,-1.91 -2.3,-7.09 -2.39,-7.07l-0.3 1.54zm6.45 -0.36l-2.95 14.58 1.5 -0.49 3.5 -17.31 -2.05 3.22zm10.62 -15.73l0.1 -1.2 -7.67 0.99 -5.05 7.86 0.48 2.14 5.76 -8.97 6.38 -0.82zm32.06 -7.13l-6.37 31.16c0.02,0 0.52,-0.17 1.51,-0.5l6.06 -29.63 16.87 -2.84 0.19 -1.26 -18.26 3.07zm6.36 16.96l3.91 10.33 0.71 -0.24 -4.46 -11.76 -0.16 1.67z"/>
  <path class="fil16" d="M191.87 110.13l-7.72 4.04 -19.72 2.92 -0.16 -1.81c-1.19,0.21 -2.4,0.3 -3.61,0.28l-6.89 4.64 -18.86 5.95 -12.11 -27.47 -2.17 0.94 -13.67 -23.07 0 -2.93 13.67 23.07 2.17 -0.93 12.11 27.47 18.86 -5.96 6.89 -4.63c1.21,0.02 2.42,-0.08 3.61,-0.28l0.16 1.81 19.72 -2.92 7.72 -4.05 13.57 6.73 9.03 -4.88 -0.99 3.46 -8.04 4.34 -13.57 -6.72zm36.63 -46.58l0 2.92 -2.43 1.31c-0.58,-0.68 -1.16,-1.34 -1.76,-1.97l4.19 -2.26zm178.46 -9.42l0 2.93 -24.19 39.95 -21.3 4.61 -0.96 -0.76 -10.81 3.64 -1.61 -1.24 -15.86 5.01 -3.23 -2.45 -21.75 5.46 -0.97 -0.79 -13.3 4.4 -3.13 -2.36 -13.94 3.63 -1.58 -1.28 -22.18 5.24 -14.5 4.32 -3.16 -2.37 -13.93 3.62 -8.14 -6.56 0 -2.92 8.14 6.56 13.93 -3.63 3.16 2.38 14.5 -4.33 22.18 -5.23 1.58 1.27 13.94 -3.62 3.13 2.36 13.3 -4.4 0.97 0.79 21.75 -5.46 3.23 2.45 15.86 -5.02 1.61 1.24 10.81 -3.64 0.96 0.77 21.3 -4.61 24.19 -39.96z"/>
 </g>
</svg>
