<?xml version="1.0" encoding="UTF-8"?>
<!DOCTYPE svg PUBLIC "-//W3C//DTD SVG 1.1//EN" "http://www.w3.org/Graphics/SVG/1.1/DTD/svg11.dtd">
<!-- Creator: CorelDRAW 2020 (64-Bit) -->
<svg xmlns="http://www.w3.org/2000/svg" xml:space="preserve" width="210px" height="66px" version="1.1" style="shape-rendering:geometricPrecision; text-rendering:geometricPrecision; image-rendering:optimizeQuality; fill-rule:evenodd; clip-rule:evenodd"
viewBox="0 0 210 66.06"
 xmlns:xlink="http://www.w3.org/1999/xlink"
 xmlns:xodm="http://www.corel.com/coreldraw/odm/2003">
 <defs>
  <style type="text/css">
   <![CDATA[
    .fil12 {fill:black}
    .fil0 {fill:#CCCCCC}
    .fil11 {fill:#FF1520}
    .fil1 {fill:white}
    .fil8 {fill:white}
    .fil3 {fill:#1D2C5E;fill-rule:nonzero}
    .fil9 {fill:#333333;fill-rule:nonzero}
    .fil7 {fill:#3C5AA6;fill-rule:nonzero}
    .fil5 {fill:#7D7F68;fill-rule:nonzero}
    .fil6 {fill:#C7A008;fill-rule:nonzero}
    .fil4 {fill:#FFCB05;fill-rule:nonzero}
    .fil13 {fill:white;fill-rule:nonzero}
    .fil14 {fill:url(#id0)}
    .fil10 {fill:url(#id1);fill-rule:nonzero}
    .fil2 {fill:url(#id2);fill-rule:nonzero}
   ]]>
  </style>
  <linearGradient id="id0" gradientUnits="userSpaceOnUse" x1="95.06" y1="60.02" x2="95.8" y2="16.3">
   <stop offset="0" style="stop-opacity:1; stop-color:#4D4D4D"/>
   <stop offset="0.329412" style="stop-opacity:1; stop-color:#737373"/>
   <stop offset="1" style="stop-opacity:1; stop-color:#999999"/>
  </linearGradient>
  <linearGradient id="id1" gradientUnits="userSpaceOnUse" x1="129.65" y1="25.43" x2="133.76" y2="43.8">
   <stop offset="0" style="stop-opacity:1; stop-color:#999999"/>
   <stop offset="0.278431" style="stop-opacity:1; stop-color:#CCCCCC"/>
   <stop offset="1" style="stop-opacity:1; stop-color:white"/>
  </linearGradient>
  <linearGradient id="id2" gradientUnits="userSpaceOnUse" x1="419.57" y1="19.16" x2="425.13" y2="13.17">
   <stop offset="0" style="stop-opacity:1; stop-color:#0070B6"/>
   <stop offset="1" style="stop-opacity:1; stop-color:#1D2C5E"/>
  </linearGradient>
 </defs>
 <g id="Layer_x0020_1">
  <metadata id="CorelCorpID_0Corel-Layer"/>
  <g id="_1379681520">
   <path class="fil0" d="M61.6 49.4l-5.14 2.7 -13.15 1.94 -0.11 -1.21c-0.79,0.14 -1.6,0.21 -2.4,0.19l-4.6 3.09 -12.57 3.97 -8.07 -18.31 -1.45 0.62 -9.11 -15.38 4.52 -4.6c8.56,-5.43 21.91,-10.39 30.47,-2.34l3.76 -2.03 15.33 -4.9 4.25 3.78 6.62 -7.61 6.48 -3.34 9.6 14.33 -2.8 1.5c1.53,1.61 2.94,3.5 4.34,5.24l87.57 -15.31 1.33 1.13 10.33 -2.47 0.72 0.6 11.63 -2 5.85 5.03 -16.13 26.64 -14.2 3.07 -0.64 -0.51 -7.21 2.43 -1.07 -0.83 -10.57 3.34 -2.15 -1.63 -14.5 3.64 -0.65 -0.53 -8.87 2.94 -2.09 -1.58 -9.29 2.42 -1.06 -0.85 -14.78 3.49 -9.67 2.88 -2.1 -1.58 -9.29 2.42 -5.43 -4.38 1.37 -4.77 -6.02 3.25 -9.05 -4.48z"/>
   <path class="fil1" d="M70.58 50.04l-12.31 -6.1 0 3.36 -2.88 1.51 -9.01 1.33 -0.18 -1.99c-2.86,1.69 -6.36,2.04 -9.3,0.44l0.6 2.54 -2.79 1.88 -9.19 2.9 -8.21 -18.6 -1.79 0.77 -6.25 -10.55 2.41 -2.45 1.81 -1.15c1.46,-0.92 3,-1.71 4.58,-2.39 7.09,-3.02 18.34,-3.96 22.02,4.55 0.44,1.01 0.67,2.08 0.7,3.17 0.59,-0.24 1.2,-0.42 1.81,-0.55l-0.29 -6.01 2.78 -1.5 13.18 -4.22 5.38 4.77 8.45 -9.7 3.19 -1.65 5.81 8.67 -4.24 2.28c2.34,0.94 3.94,2.73 5.54,4.72l0.72 0.88 -2.63 2.83 4.71 4.24c-3,3.09 -7.16,7.08 -11.4,8.18l0.01 6.1 -3.23 1.74z"/>
   <path id="polygon25" class="fil2" d="M72.92 13.1l-7.91 9.07 1.98 -1.01 7.86 -9.06 -1.93 1z"/>
   <path id="polygon62" class="fil3" d="M56.48 19.92l-0.37 0.7 -0.06 2.77 2.36 -4.52 -1.93 1.05zm-12.82 3.54l0.28 5.63 1.82 -0.46 0.11 1.25c0.7,0.1 1.4,0.3 2.06,0.6l-0.26 -2.87 -1.79 0.46 -0.27 -5.65 -1.95 1.04zm3.64 22.15c-5.64,3.36 -13.04,0.01 -12.17,-7.15 -0.56,0.53 -1.16,1.04 -1.81,1.52l1.09 4.21c2.69,5.24 8.94,5.11 12.9,1.54l0.26 2.9 7.41 -1.09 1.97 -1.04 -7.43 1.09 -0.32 -3.44c-0.59,0.58 -1.23,1.07 -1.9,1.46zm23.26 2.95l-13.61 -6.74 0 -1.99 15.54 7.68 -1.93 1.05zm-52.57 -12.98l8.28 18.77 7.86 -2.54 1.92 -1.29 -7.84 2.53 -8.61 -19.2 -1.94 0.95 -5.14 -8.69 -1.6 1.62 5.14 8.68 1.93 -0.83zm61.12 2.18c-1.87,1.27 -3.95,2.09 -6.63,2.32l0 1.18c3.17,-0.47 4.76,-2.02 6.63,-3.5zm-17.7 -4.95c-0.04,-0.45 -0.04,-0.91 -0.03,-1.36l0 0 1 -0.97c-0.08,0.89 -0.04,1.82 0.15,2.77l-1.12 -0.44zm4.99 -8.99l-1.51 0.8 0.26 0.23c0.89,-0.84 1.96,-1.53 3.19,-2.03l-1.35 -1.65 -1.98 1 1.39 1.65z"/>
   <g id="g84">
    <path id="path86" class="fil4" d="M82.8 34.12l-4.15 3.56c-1.24,0.74 -2.67,1.31 -4.36,1.71 -0.6,0.15 -1.22,0.25 -1.85,0.3l-0.35 0.03 0 0.36 0 6.8 -14.97 -7.4 -0.57 -0.27 0 0.62 0.01 6.33 -6.69 0.99 -0.28 -3.04 -0.08 -0.81 -0.58 0.57c-0.88,0.86 -1.88,1.54 -2.96,1.99 -1.11,0.47 -2.25,0.71 -3.39,0.71 -1.14,0 -2.21,-0.24 -3.19,-0.7 -1.8,-0.87 -3.1,-2.45 -3.66,-4.43 -0.27,-0.93 -0.34,-1.92 -0.21,-2.93l0.13 -1.08 -0.79 0.75c-0.55,0.53 -1.15,1.03 -1.77,1.49l-0.21 0.15 0.06 0.26 2.26 8.66 0.4 1.53 -1.51 0.48 -4.25 1.36 -1.42 0.46 0 0 0 0 -0.62 -1.37 -7.84 -17.51 -0.16 -0.36 -0.36 0.17 -0.24 0.11 -1.39 0.68c-0.21,-0.34 -0.55,-0.92 -0.79,-1.32l-3.16 -5.34 -0.82 -1.39 1.36 -0.87c1.3,-0.82 2.75,-1.58 4.34,-2.26 3.16,-1.35 6.39,-2.06 9.33,-2.06 0.97,0 1.91,0.08 2.79,0.23 1.46,0.17 2.82,0.65 3.94,1.4 1.67,0.93 2.99,2.38 3.73,4.09 0.61,1.41 0.73,3.06 0.34,4.77l-0.23 1 0.84 -0.6c0.56,-0.41 1.17,-0.76 1.81,-1.04 1.11,-0.47 2.26,-0.71 3.42,-0.71 1.09,0 2.12,0.22 3.06,0.64l0.61 0.28 -0.06 -0.67 -0.27 -2.87 -0.04 -0.45 -0.44 0.11 -1.33 0.35 -0.23 -4.89 9.73 -3.11 -0.08 3.8 0.74 0.19 2.12 -4.08 6.37 5.65 0.27 0.24 0.26 -0.25c0.87,-0.82 1.9,-1.47 3.07,-1.95l0.49 -0.2 -0.34 -0.41 -1.15 -1.4 7.32 -8.43 3.83 5.72 -7.17 3.85 1.48 0.03c3.86,0.08 5.69,1.79 7.93,4.55l-2.82 3 4.74 4.23zm-52.48 -4.79c-0.21,0 -0.44,0.02 -0.67,0.06l-0.29 0.06 -0.42 0.08 0.12 0.41 0.09 0.28 1.21 3.97 0.12 0.38 0.18 0.57 0.45 -0.4 0.3 -0.26c1.18,-1.06 1.59,-2.13 1.34,-3.49 -0.15,-0.81 -0.78,-1.22 -1.15,-1.38 -0.37,-0.19 -0.81,-0.28 -1.28,-0.28l0 0 0 0zm32.55 0.13l-0.76 0.74 -1.99 1.94 -0.44 0.42 0.57 0.22 2.14 0.83 0.66 0.25 -0.14 -0.69c-0.18,-0.89 -0.22,-1.78 -0.14,-2.65l0.1 -1.06 0 0zm8.73 -2.21c-0.83,0 -1.63,0.36 -2.2,0.98 -0.87,0.94 -1.03,2.34 -0.42,3.46l0.16 0.31 0.27 0.49 0.36 -0.41 0.24 -0.27 3.53 -4.03c-0.64,-0.24 -1.24,-0.53 -1.94,-0.53l0 0 0 0z"/>
   </g>
   <path id="path88" class="fil5" d="M76.09 32.21c-0.03,0.03 -0.06,0.06 -0.08,0.09 0.03,-0.03 0.06,-0.05 0.09,-0.08l-0.01 -0.01 0 0z"/>
   <path id="polygon90" class="fil5" d="M78.61 29.87l1.47 -1.56 -0.5 0.53 0.01 -0.07 -0.44 0.47 -1.47 1.56 1.37 1.23 0.25 -1.54 0.69 0.61 -1.38 -1.23z"/>
   <path id="path94" class="fil5" d="M60.39 32.42l0.02 0.01 -0.02 -0.01z"/>
   <path id="polygon100" class="fil6" d="M54.38 28.56l3.96 -5.55 -0.17 -0.15 -3.81 5.36 0.02 0.34z"/>
   <path id="path164" class="fil7" d="M47.28 34.81c0,1.02 -0.93,1.84 -2.08,1.84 -1.14,0 -2.07,-0.82 -2.07,-1.84 0,-0.95 0.82,-1.74 1.87,-1.83 -0.2,-0.04 -0.41,-0.06 -0.63,-0.06 -1.91,0 -3.42,1.42 -3.42,3.11 0,1.8 1.51,3.21 3.39,3.21 1.91,0 3.42,-1.41 3.42,-3.21 0,-0.63 -0.2,-1.22 -0.56,-1.7 0.05,0.15 0.08,0.31 0.08,0.48zm-19.4 -5.44l2.27 7.44c7.37,-4.74 1.98,-9.76 -2.27,-7.44zm41.03 -1.3c-1.53,1.66 -1.19,4.2 0.62,5.49l4.82 -5.46c-1.51,-1.58 -3.94,-1.68 -5.44,-0.03zm0.63 3.61c-1.06,-1.94 0.88,-4.14 2.93,-3.34l-2.93 3.34zm13.76 2.41l-4.69 -4.22 2.77 -2.98c-2.38,-2.95 -4.26,-4.85 -8.42,-4.94l6.24 -3.35 -4.35 -6.49 -7.86 9.05 1.35 1.66c-1.23,0.5 -2.3,1.19 -3.19,2.03l-6.74 -5.98 -2.36 4.52 0.09 -4.34 -10.53 3.36 0.27 5.66 1.79 -0.46 0.26 2.87c-2.85,-1.29 -6.2,-0.66 -8.68,1.14 1.23,-5.45 -3.03,-9.94 -8.32,-10.72 -6.72,-0.99 -12.93,1.73 -18.42,5.21 0.83,1.41 5.14,8.69 5.15,8.69l1.94 -0.95 8.61 19.2 7.85 -2.52 -2.74 -10.55c0.65,-0.48 1.25,-0.99 1.81,-1.52 -0.98,8 8.39,11.25 14.07,5.69l0.32 3.44 7.44 -1.09 -0.01 -6.67 15.53 7.68 0 -7.43c4.77,-0.4 7.64,-2.71 10.82,-5.99zm-8.79 -19.1l2.3 3.12 -6.58 3.26 -0.45 -0.69 4.73 -5.69zm-43.56 24.1l2.63 10.07 -4.25 1.36 -8.71 -19.47c-0.48,0.25 -1.35,0.67 -2.16,1.06l-3.16 -5.33c4.25,-2.71 10.23,-4.52 15.27,-3.85 9.56,1.29 8.21,11.33 0.38,16.16zm14.47 5.34c-3.69,1.57 -7.37,0 -8.36,-3.49 -1.66,-5.9 5.92,-12.06 11.05,-8.57 4.61,3.12 1.97,10.06 -2.69,12.06zm25.11 -0.01l-15.41 -7.71 0.03 8.07 -3.99 0.55 -0.28 -3.33c1.88,-3.22 1.91,-7.38 -0.85,-10.09l-0.57 -6.79 -1.79 0.46 -0.08 -1.72 6.4 -1.9 0.39 6.6 4.72 -6.63 4.61 4.4 -6.45 6.79 6.06 2.4c1.43,2.71 4.22,4.26 7.21,4.55l0 4.35zm-8 -11.17l-2.14 -0.83 1.99 -1.94c-0.08,0.89 -0.04,1.82 0.15,2.77zm9.95 4.81c-6.48,0.61 -10.49,-5.61 -6.94,-10.65 2.85,-4.1 9.81,-4.8 13.11,-0.74l-6.42 6.83c1.72,0.33 3.71,-0.97 4.78,-2.22l3.34 3.01c-2.04,2.12 -4.94,3.5 -7.87,3.77zm-42.71 -7.74c2.75,-0.5 3.18,2.21 1.21,3.96 0,0 -1.1,-3.59 -1.21,-3.96z"/>
   <path id="path122" class="fil6" d="M63.32 35.52l-6.06 -2.4 -0.86 0.93 5.99 2.39c1.44,2.72 4.21,4.27 7.21,4.56l0 2.95 0.93 0.47 0 -4.35c-2.99,-0.29 -5.78,-1.84 -7.21,-4.55zm-47.84 -8.45c5.31,-3.01 18.22,-6.69 20.58,1.3 1.01,3.41 -1.21,6.99 -3.83,9.84 6.67,-5.07 7.36,-14.06 -1.66,-15.28 -5.04,-0.67 -11.02,1.14 -15.27,3.85l0.18 0.29zm18.1 22.09l-2.63 -10.07 -1.01 0.71 2.59 9.69 1.05 -0.33zm-0.26 -15.46c-0.54,0.99 -1.54,2.06 -3.17,3.11l-2.27 -7.44 -0.67 0.86 2.26 7.45c1.12,-0.72 3.15,-2.43 3.85,-3.98zm12.95 1.55c0.12,0.4 0.09,0.81 -0.08,1.18l0 0 0.01 0c0.02,-0.01 0.05,-0.03 0.09,-0.05 0.59,-0.32 0.99,-0.9 0.99,-1.57 0,-0.17 -0.03,-0.33 -0.08,-0.48l-0.93 0.92zm-2.2 -1.35c-0.01,0.02 0.89,-0.89 0.92,-0.92 -0.7,0.06 -1.29,0.43 -1.61,0.95 -0.04,0.08 -0.07,0.14 -0.09,0.17l0 0.01 -0.01 0.01 0 0 0 0.01c0.24,-0.12 0.51,-0.2 0.79,-0.23zm3.52 -10.04l0.03 0.65 5.44 -1.62 0.42 7.05 0.9 -1.38 -0.39 -6.6 -6.4 1.9zm-8.67 10.33c6.58,-5.54 14.4,1.98 8.77,8.75 3.1,-2.87 4.2,-8 0.42,-10.57 -3.01,-2.05 -6.86,-0.77 -9.19,1.82zm3.29 -0.57c-1.53,0.98 -2.19,2.3 -2.19,3.34 0,1.79 1.58,3.23 3.46,3.23 0.89,0 2.52,-0.47 3.59,-2.2l-0.01 0.01c-0.62,0.76 -1.6,1.24 -2.72,1.24 -1.88,0 -3.39,-1.41 -3.39,-3.21 0,-0.96 0.49,-1.84 1.26,-2.41zm21.5 -7.29l-4.61 -4.4 -0.76 1.08 4.5 4.23 0.87 -0.91zm11.92 -7.63l1.18 -0.59 -2.3 -3.12 -0.85 1.03 1.97 2.68zm-3.4 14.8l-0.9 0.98c1.61,0.31 3.59,-1.03 4.77,-2.25l3.29 2.95 0 0c0.33,-0.28 0.66,-0.58 0.96,-0.89l-3.34 -3.01c-1.07,1.25 -3.06,2.55 -4.78,2.22zm-6.35 -6.54c3.39,-2.86 8.96,-2.91 11.86,0.68l0.91 -0.97c-3.18,-3.9 -9.73,-3.4 -12.77,0.29zm3.01 7.32l0.64 -0.72c-1.81,-1.29 -2.15,-3.83 -0.62,-5.49 0.08,-0.09 0.3,-0.28 0.35,-0.34 -2.15,1.41 -2.43,5.13 -0.37,6.55zm-14.7 3.38l0.03 7.25 0.93 -0.13 -0.03 -8.07 -0.93 0.95z"/>
   <path id="path158" class="fil5" d="M30.03 31.19c1.44,0.31 1.67,1.77 0.95,3.09 1.97,-1.75 1.54,-4.46 -1.21,-3.96 0.03,0.1 0.13,0.43 0.26,0.87z"/>
   <path id="path156" class="fil5" d="M69.68 29.19c0.63,-0.37 1.58,-0.45 2.26,-0.25l0.53 -0.6c-1.12,-0.44 -2.21,0.03 -2.79,0.85z"/>
   <path class="fil8" d="M186.98 15.15l0.33 -0.54 10.8 -1.86 2.32 2 -13.8 22.78 -11.06 2.39 -0.83 -0.67 -7.26 2.44 -1.03 -0.8 -10.59 3.35 -2.05 -1.55 -14.43 3.62 -0.78 -0.63 -8.94 2.96 -1.98 -1.49 -9.22 2.4 -1.01 -0.82 -14.79 3.49 -0.48 -0.39 -9.42 3.17 -1.98 -1.49 -9.22 2.4 -2.22 -1.79 6.61 -23.09 7.88 -1.8 1.2 1 0.84 -1.31 7.8 -1.01 1.09 0.91 0.26 -1.32 13.52 -2.33 1.93 1.62 0.22 5.38 2.16 -7.49 7.88 -1.8 1.2 1 0.84 -1.32 7.78 -0.96 1.91 1.51 0.57 -2.32 13.66 -2.44 1.57 1.31 0.32 -1.57 15.53 -2.61 1.44 1.23 10.34 -2.47 1.09 0.91zm-10.84 2.11l-2.1 13.51 1.64 2.96 4.06 -6.71 -3.6 -9.76z"/>
   <path class="fil9" d="M186.54 16.54l0.23 1.49 1.37 -2.2 9.57 -1.65 0.98 0.84 -12.9 21.32 -9.88 2.14 -0.9 -0.73 -7.27 2.45 -1.03 -0.8 -0.65 -1.72 -0.19 1.99 -9.75 3.09 -1.05 -0.8 0.21 -1.02 -15.58 3.91 -0.83 -0.67 -8.97 2.97 -1.04 -0.79 0.76 -3.78 -0.83 -0.61 -0.17 -0.5 -0.81 4.27 -9.03 2.34 -1 -0.8 -14.79 3.49 -0.54 -0.44 -9.45 3.18 -1.04 -0.79 0.76 -3.79 -1 -1.1 -0.81 4.26 -9.03 2.35 -1 -0.8 6.14 -21.47 6.46 -1.48 1.01 0.84 0.33 1.5 1.84 -2.86 6.6 -0.86 1 0.84 -1.33 14.86 3.23 -16.34 12 -2.07 1 0.84 0.23 5.9 -2.85 1.03 0.19 0.15 -1.09 5.41 1.63 -0.56 1 0.84 0.18 4.55 5.46 -18.95 6.47 -1.48 1 0.84 0.34 1.51 1.84 -2.87 6.59 -0.81 1.01 0.8 -1.43 15.92 4.39 -17.77 12.19 -2.17 1 0.84 -1.03 15.42 3.43 -16.78 14 -2.35 1 0.84 -1.8 11.59 -1.09 0.18 3.81 6.88 5.59 -9.23 -3.53 -9.59 7.85 -1.88 1 0.84z"/>
   <path class="fil10" d="M184.67 16.85l-5.64 1.42 3.2 8.89 -5.56 9.21 7.59 -1.65 11.69 -19.31 -7.32 1.26 -2.63 4.22 -1.33 -4.04zm-18.62 6.55l-0.11 2.42 -0.78 0.21 0.28 -2.63 0.61 0zm-78.34 9.54l-5.6 19.45 7.03 -1.83 1.67 -8.66c0.09,-0.01 1.31,4.04 1.4,4.31l2.89 -4.55 -1.96 9.72 7.45 -2.46 1.67 -18.54 -5.12 0.65 -3.37 5.25 -1.01 -4.49 -5.05 1.15zm19.2 -3.48l-3.81 19.3 13.49 -3.3 -0.19 -4.86 -6.58 2.24 0.22 -2 3.65 -1.49 0.91 -4.55 -3.79 0.65 0.18 -1.19 6.46 -2.34 -0.17 -4.25 -10.37 1.79zm17.7 -2.88l-5.6 19.45 7.03 -1.83 1.66 -8.66c0.09,-0.01 1.32,4.05 1.41,4.31l2.89 -4.54 -1.96 9.72 7.44 -2.46 1.67 -18.55 -5.11 0.65 -3.37 5.25 -1.02 -4.49 -5.04 1.15zm35.85 -6.52l-4.25 20.78c0.04,-0.01 2.64,-0.88 7.81,-2.63l0.67 -6.84 2.62 6.89 6.49 -2.19 -4.44 -8.02 1.76 -0.31 1.51 -9.72 -12.17 2.04z"/>
   <path class="fil11" d="M154.65 31.05c0.22,-3.39 0.45,-6.77 0.68,-10.16 -3.5,0.62 -6.99,1.24 -10.49,1.86 -0.62,2.51 -1.24,5.01 -1.86,7.52 1.71,0.53 3.56,0.88 5.53,1.02 1.97,0.13 4.03,0.06 6.14,-0.24z"/>
   <path class="fil8" d="M154.65 31.05c-0.18,2.73 -0.37,5.46 -0.55,8.19 -4.74,1.2 -9.48,2.39 -14.22,3.58 1.03,-4.18 2.07,-8.37 3.1,-12.55 1.71,0.53 3.56,0.88 5.53,1.02 1.97,0.13 4.03,0.06 6.14,-0.24z"/>
   <path class="fil12" d="M154.61 31.68c-0.85,0.13 -1.68,0.22 -2.5,0.27 -2.3,5.32 -8.62,4.92 -7.17,-0.41 -0.74,-0.14 -1.45,-0.32 -2.14,-0.52 0.12,-0.5 0.24,-1 0.36,-1.49 0.76,0.24 1.54,0.44 2.35,0.6 2.19,-4.05 7.87,-4.64 7.02,0.4 0.72,-0.05 1.44,-0.12 2.17,-0.22 -0.03,0.45 -0.06,0.91 -0.09,1.37z"/>
   <path class="fil8" d="M149.27 28.32c1.4,-0.28 2.36,0.68 2.17,2.31 -0.19,1.62 -1.57,3.35 -3.11,3.7 -1.54,0.34 -2.52,-0.88 -2.19,-2.57 0.33,-1.69 1.73,-3.15 3.13,-3.44z"/>
   <path class="fil13" d="M184.67 16.85l-5.64 1.42 3.2 8.89 -5.56 9.21 1.39 -0.3 4.96 -8.22 -3.2 -8.89 5.12 -1.29 -0.27 -0.82zm10.73 -0.52l0.55 -0.92 -7.32 1.26 -2.63 4.22 0.43 1.28 2.99 -4.81 5.98 -1.03zm-28.74 7.08l0.07 2.2 -0.79 0.21 0.11 -2.42 0.61 0.01zm-78.95 9.53l-5.6 19.45 1.08 -0.28 5.32 -18.48 4.43 -1.02 -0.18 -0.82 -5.05 1.15zm3.1 8.96c0.36,1.14 1.35,4.16 1.4,4.31l0.39 -0.62c-0.39,-1.27 -1.54,-4.73 -1.6,-4.72l-0.19 1.03zm4.29 -0.24l-1.96 9.72 1 -0.33 2.33 -11.53 -1.37 2.14zm7.08 -10.48l0.08 -0.8 -5.12 0.65 -3.37 5.25 0.32 1.42 3.84 -5.98 4.25 -0.54zm4.73 -1.72l-3.81 19.3 0.98 -0.24 3.63 -18.37 9.6 -1.66 -0.03 -0.82 -10.37 1.79zm9.53 12.09l-0.04 -0.95 -6.58 2.24 -0.11 1 6.73 -2.29zm-2.01 -5.9l0.17 -0.85 -3.79 0.65 -0.13 0.85 3.75 -0.65zm10.18 -9.07l-5.6 19.45 1.08 -0.28 5.31 -18.48 4.44 -1.01 -0.19 -0.83 -5.04 1.15zm3.09 8.96c0.36,1.14 1.36,4.16 1.41,4.31l0.39 -0.62c-0.4,-1.27 -1.54,-4.72 -1.6,-4.71l-0.2 1.02zm4.3 -0.23l-1.96 9.72 1 -0.33 2.33 -11.54 -1.37 2.15zm7.08 -10.49l0.07 -0.8 -5.11 0.65 -3.37 5.25 0.32 1.43 3.84 -5.99 4.25 -0.54zm21.38 -4.76l-4.25 20.78c0.01,0 0.35,-0.12 1,-0.34l4.04 -19.75 11.25 -1.89 0.13 -0.84 -12.17 2.04zm4.23 11.31l2.62 6.89 0.47 -0.16 -2.98 -7.84 -0.11 1.11z"/>
   <path class="fil14" d="M61.6 51.35l-5.14 2.7 -13.15 1.94 -0.11 -1.21c-0.79,0.14 -1.6,0.21 -2.4,0.19l-4.6 3.09 -12.57 3.97 -8.07 -18.31 -1.45 0.62 -9.11 -15.38 0 -1.95 9.11 15.38 1.45 -0.62 8.07 18.31 12.57 -3.97 4.6 -3.09c0.8,0.02 1.61,-0.05 2.4,-0.19l0.11 1.21 13.15 -1.94 5.14 -2.7 9.05 4.48 6.02 -3.25 -0.66 2.31 -5.36 2.89 -9.05 -4.48zm24.43 -31.05l0 1.95 -1.63 0.87c-0.38,-0.46 -0.77,-0.9 -1.17,-1.32l2.8 -1.5zm118.97 -6.28l0 1.95 -16.13 26.64 -14.2 3.07 -0.64 -0.51 -7.21 2.43 -1.07 -0.83 -10.57 3.34 -2.15 -1.63 -14.5 3.64 -0.65 -0.53 -8.87 2.94 -2.09 -1.58 -9.29 2.42 -1.06 -0.85 -14.78 3.49 -9.67 2.88 -2.1 -1.58 -9.29 2.42 -5.43 -4.38 0 -1.95 5.43 4.38 9.29 -2.42 2.1 1.58 9.67 -2.88 14.78 -3.49 1.06 0.85 9.29 -2.42 2.09 1.58 8.87 -2.94 0.65 0.53 14.5 -3.64 2.15 1.63 10.57 -3.34 1.07 0.83 7.21 -2.43 0.64 0.51 14.2 -3.07 16.13 -26.64z"/>
  </g>
 </g>
</svg>
