<?xml version="1.0" encoding="UTF-8"?>
<!DOCTYPE svg PUBLIC "-//W3C//DTD SVG 1.1//EN" "http://www.w3.org/Graphics/SVG/1.1/DTD/svg11.dtd">
<!-- Creator: CorelDRAW 2020 (64-Bit) -->
<svg xmlns="http://www.w3.org/2000/svg" xml:space="preserve" width="100px" height="87px" version="1.1" style="shape-rendering:geometricPrecision; text-rendering:geometricPrecision; image-rendering:optimizeQuality; fill-rule:evenodd; clip-rule:evenodd"
viewBox="0 0 100 86.62"
 xmlns:xlink="http://www.w3.org/1999/xlink"
 xmlns:xodm="http://www.corel.com/coreldraw/odm/2003">
 <defs>
  <style type="text/css">
   <![CDATA[
    .fil0 {fill:#CCCCCC}
   ]]>
  </style>
 </defs>
 <g id="Layer_x0020_1">
  <metadata id="CorelCorpID_0Corel-Layer"/>
  <path class="fil0" d="M0 22.33c11.29,0 20.57,8.64 21.58,19.67l-11.78 0c-0.93,-4.57 -4.96,-8 -9.8,-8l0 -11.67zm25 43.31c11.3,0 20.57,8.64 21.58,19.67l-11.78 0c-0.92,-4.56 -4.96,-8 -9.8,-8 -4.83,0 -8.87,3.44 -9.8,8l-11.77 0c1.01,-11.03 10.28,-19.67 21.57,-19.67zm50 0c11.3,0 20.57,8.64 21.58,19.67l-11.78 0c-0.92,-4.56 -4.96,-8 -9.8,-8 -4.83,0 -8.87,3.44 -9.8,8l-11.77 0c1.01,-11.03 10.28,-19.67 21.57,-19.67zm0 16.67c2.76,0 5,2.24 5,5l-10 0c0,-2.76 2.24,-5 5,-5zm-50 0c2.76,0 5,2.24 5,5l-10 0c0,-2.76 2.24,-5 5,-5zm55 -81.62c0,2.76 -2.24,4.99 -5,4.99 -2.76,0 -5,-2.23 -5,-4.99l10 0zm16.58 1.99c-1.01,11.04 -10.28,19.67 -21.58,19.67 -11.29,0 -20.56,-8.63 -21.57,-19.67l11.77 0c0.93,4.57 4.97,8.01 9.8,8.01 4.84,0 8.88,-3.44 9.8,-8.01l11.78 0zm-66.58 -1.99c0,2.76 -2.24,4.99 -5,4.99 -2.76,0 -5,-2.23 -5,-4.99l10 0zm16.58 1.99c-1.01,11.04 -10.28,19.67 -21.58,19.67 -11.29,0 -20.56,-8.63 -21.57,-19.67l11.77 0c0.93,4.57 4.97,8.01 9.8,8.01 4.84,0 8.88,-3.44 9.8,-8.01l11.78 0zm53.42 31.32c-4.84,0 -8.87,3.43 -9.8,8l-11.77 0c1.01,-11.03 10.28,-19.67 21.57,-19.67l0 11.67zm0 15c-2.76,0 -5,-2.24 -5,-5 0,-2.76 2.24,-5 5,-5l0 10zm0 16.67c-11.29,-0.01 -20.56,-8.64 -21.57,-19.67l11.77 0c0.93,4.56 4.96,8 9.8,8l0 11.67zm-50 -43.34c11.29,0 20.57,8.64 21.58,19.67l-11.78 0c-0.93,-4.57 -4.96,-8 -9.8,-8 -4.83,0 -8.87,3.43 -9.8,8l-11.77 0c1.01,-11.03 10.28,-19.67 21.57,-19.67zm0 16.67c2.76,0 5,2.24 5,5 0,2.76 -2.24,5 -5,5 -2.76,0 -5,-2.24 -5,-5 0,-2.76 2.24,-5 5,-5zm21.58 7c-1.01,11.03 -10.29,19.67 -21.58,19.67 -11.29,0 -20.56,-8.64 -21.57,-19.67l11.77 0c0.93,4.56 4.97,8 9.8,8 4.84,0 8.87,-3.44 9.8,-8l11.78 0zm-71.58 -7c2.76,0 5,2.24 5,5 0,2.76 -2.24,5 -5,5l0 -10zm21.58 7c-1.01,11.03 -10.29,19.67 -21.58,19.67l0 -11.67c4.84,0 8.87,-3.44 9.8,-8l11.78 0z"/>
 </g>
</svg>
