<?xml version="1.0" encoding="UTF-8"?>
<!DOCTYPE svg PUBLIC "-//W3C//DTD SVG 1.1//EN" "http://www.w3.org/Graphics/SVG/1.1/DTD/svg11.dtd">
<!-- Creator: CorelDRAW 2020 (64-Bit) -->
<svg xmlns="http://www.w3.org/2000/svg" xml:space="preserve" width="265px" height="200px" version="1.1" style="shape-rendering:geometricPrecision; text-rendering:geometricPrecision; image-rendering:optimizeQuality; fill-rule:evenodd; clip-rule:evenodd"
viewBox="0 0 265 200"
 xmlns:xlink="http://www.w3.org/1999/xlink"
 xmlns:xodm="http://www.corel.com/coreldraw/odm/2003">
 <defs>
  <style type="text/css">
   <![CDATA[
    .fil13 {fill:black}
    .fil12 {fill:#373435}
    .fil15 {fill:#996699}
    .fil0 {fill:#E6E6E6}
    .fil10 {fill:#FF1520}
    .fil1 {fill:white}
    .fil11 {fill:white}
    .fil4 {fill:#1D2C5E;fill-rule:nonzero}
    .fil2 {fill:#333333;fill-rule:nonzero}
    .fil8 {fill:#3C5AA6;fill-rule:nonzero}
    .fil6 {fill:#7D7F68;fill-rule:nonzero}
    .fil7 {fill:#C7A008;fill-rule:nonzero}
    .fil5 {fill:#FFCB05;fill-rule:nonzero}
    .fil14 {fill:white;fill-rule:nonzero}
    .fil9 {fill:url(#id0);fill-rule:nonzero}
    .fil3 {fill:url(#id1);fill-rule:nonzero}
   ]]>
  </style>
  <linearGradient id="id0" gradientUnits="userSpaceOnUse" x1="113.58" y1="126.14" x2="120.05" y2="161.58">
   <stop offset="0" style="stop-opacity:1; stop-color:#999999"/>
   <stop offset="0.278431" style="stop-opacity:1; stop-color:#CCCCCC"/>
   <stop offset="1" style="stop-opacity:1; stop-color:white"/>
  </linearGradient>
  <linearGradient id="id1" gradientUnits="userSpaceOnUse" x1="1013.95" y1="39.93" x2="1027.35" y2="25.5">
   <stop offset="0" style="stop-opacity:1; stop-color:#0070B6"/>
   <stop offset="1" style="stop-opacity:1; stop-color:#1D2C5E"/>
  </linearGradient>
 </defs>
 <g id="Layer_x0020_1">
  <metadata id="CorelCorpID_0Corel-Layer"/>
  <path class="fil0" d="M56.1 123.3l-14.63 -33.17 -3.83 1.65 -19.19 -32.41 8.86 -9.01c17.06,-10.83 56.06,-22.66 71.9,-4.68l9.83 -5.39 36.92 -11.79 -0.05 2.41 9.34 8.28 17.75 -20.35 12.43 -6.43 19.48 29.08 -7.54 4.05c4.38,3.77 8.15,8.88 11.81,13.41l-5.84 6.29 11.44 10.29c-8.57,8.83 -18.02,19.04 -29.65,23.54l0.01 6.91 16.24 -2.07 2.58 2.25 19.92 -3.93 1.31 1.19 22.4 -2.95 10.34 9.62 -32.53 49.21 -26.95 4.72 -1.2 -1.05 -13.99 4.1 -1.98 -1.66 -20.48 5.6 -3.97 -3.28 -28.01 5.87 -1.22 -1.08 -17.19 4.95 -3.87 -3.16 -17.94 3.92 -1.95 -1.7 -28.54 5.55 -0.61 -0.54 -18.13 5.31 -3.89 -3.17 -17.94 3.91 -9.61 -8.39 16.83 -51.13 21.92 -4.1 9.42 -0.67z"/>
  <path class="fil1" d="M223.95 110.27l0.54 -0.8 21.11 -2.78 4.65 4.31 -28.37 42.92 -21.67 3.8 -1.52 -1.32 -14.06 4.12 -1.93 -1.61 -20.5 5.6 -3.81 -3.14 -27.89 5.85 -1.43 -1.26 -17.32 4.98 -3.68 -3 -17.83 3.89 -1.88 -1.65 -28.54 5.56 -0.88 -0.77 -18.25 5.35 -3.68 -3.02 -17.83 3.89 -4.43 -3.86 14.52 -44.1 15.62 -2.93 2.03 1.85 1.58 -2.25 15.29 -1.36 -19.78 -44.86 -4.33 1.87 -15.06 -25.43 5.8 -5.91 4.37 -2.77c3.52,-2.23 7.23,-4.14 11.06,-5.77 17.07,-7.28 44.2,-9.54 53.08,10.98 1.06,2.43 1.6,5.01 1.7,7.64 1.4,-0.57 2.87,-1.02 4.35,-1.33l-0.71 -14.5 6.71 -3.62 29.92 -9.56 -0.03 1.55 2.67 -1.45 12.18 10.81 20.37 -23.41 7.69 -3.97 14.02 20.91 -10.23 5.5c5.66,2.26 9.52,6.58 13.38,11.37l1.72 2.13 -6.34 6.83 11.36 10.22 -0.71 0.73c-6.9,7.1 -16.9,16.42 -26.78,18.99l0.02 14.7 -5.74 3.1 25.01 -3.2 2.76 2.42 19.86 -3.91 1.84 1.67zm-157.57 17.59l26.08 -3.44 3.82 3.47 0 8.2 4.06 -12.23 15.61 -2.92 2.03 1.85 1.59 -2.27 15.26 -1.26 3.22 2.76 1.19 -4.08 26.72 -3.68 2.57 2.33 0.65 -2.63 1.91 -0.24 -28.34 -14.04 0.01 8.09 -6.95 3.64 -21.71 3.22 -0.43 -4.8c-6.92,4.07 -15.36,4.93 -22.44,1.06l1.44 6.14 -6.72 4.51 -19.57 6.32zm27.48 15.54l-3.11 0.99 -1.04 4.29 1.84 1.68 2.31 -6.96zm109.36 -27.91l-4.72 24.03 2.54 5.25 7.82 -11.85 -5.64 -17.43z"/>
  <path class="fil2" d="M223.08 113.44l0.32 2.87 2.78 -4.11 18.44 -2.43 1.81 1.69 -26.3 39.79 -19.05 3.34 -1.67 -1.45 -14.1 4.13 -1.91 -1.6 -1.1 -3.35 -0.53 3.8 -18.88 5.16 -1.94 -1.6 0.48 -1.94 -30.1 6.31 -1.53 -1.35 -17.39 5 -1.94 -1.58 1.74 -7.19 -1.53 -1.23 -0.28 -0.96 -1.88 8.1 -17.46 3.81 -1.85 -1.62 -28.54 5.56 -1.01 -0.88 -18.31 5.36 -1.94 -1.59 1.74 -7.18 -1.82 -2.19 -1.87 8.09 -17.46 3.82 -1.85 -1.62 13.36 -40.61 12.49 -2.34 1.85 1.69 0.53 2.9 3.74 -5.34 12.68 -1.13 1.85 1.68 -3.68 28.32 7.42 -31.02 23.11 -3.05 1.85 1.68 0 11.3 -5.52 1.77 0.35 0.3 -2.49 10.25 3.16 -0.94 1.84 1.68 0 8.73 11.89 -35.84 12.48 -2.34 1.85 1.68 0.53 2.91 3.74 -5.35 12.67 -1.05 1.87 1.61 -3.95 30.35 9.75 -33.66 23.48 -3.23 1.86 1.68 -3.14 29.41 7.82 -31.82 26.97 -3.45 1.84 1.69 -4.32 22.02 -2.1 0.28 6.77 13.45 11.38 -17.25 -6.02 -18.61 15.17 -2.99 1.85 1.68z"/>
  <path id="polygon25" class="fil3" d="M178.09 25.32l-19.08 21.88 4.76 -2.43 18.96 -21.84 -4.64 2.39z"/>
  <path id="polygon62" class="fil4" d="M138.44 41.76l-0.89 1.7 -0.14 6.66 5.68 -10.88 -4.65 2.52zm-30.9 8.54l0.67 13.59 4.38 -1.11 0.27 3.01c1.7,0.24 3.37,0.71 4.98,1.43l-0.64 -6.92 -4.33 1.13 -0.64 -13.64 -4.69 2.51zm8.78 53.41c-13.6,8.1 -31.46,0.03 -29.35,-17.24 -1.35,1.28 -2.81,2.51 -4.37,3.66l2.64 10.14c6.49,12.66 21.55,12.33 31.08,3.73l0.64 6.99 17.85 -2.64 4.77 -2.5 -17.91 2.64 -0.77 -8.31c-1.44,1.41 -2.98,2.58 -4.58,3.53zm56.06 7.1l-32.81 -16.25 0 -4.78 37.47 18.52 -4.66 2.51zm-126.73 -31.28l19.95 45.24 18.95 -6.11 4.63 -3.11 -18.91 6.08 -20.74 -46.27 -4.69 2.28 -12.4 -20.95 -3.85 3.91 12.4 20.93 4.66 -2zm147.35 5.26c-4.51,3.04 -9.53,5.04 -15.98,5.58l0 2.85c7.65,-1.14 11.48,-4.87 15.98,-8.43zm-42.68 -11.93c-0.08,-1.11 -0.09,-2.22 -0.05,-3.3l0 0 2.41 -2.34c-0.21,2.15 -0.1,4.4 0.35,6.68l-2.71 -1.04zm12.04 -21.7l-3.64 1.94 0.63 0.55c2.14,-2.01 4.73,-3.68 7.69,-4.9l-3.26 -3.97 -4.77 2.42 3.35 3.96z"/>
  <g id="g84">
   <path id="path86" class="fil5" d="M201.89 76l-9.99 8.58c-3,1.8 -6.44,3.15 -10.53,4.14 -1.43,0.35 -2.92,0.59 -4.44,0.72l-0.86 0.07 0 0.86 0 16.41 -36.09 -17.84 -1.36 -0.67 0 1.51 0.03 15.26 -16.14 2.38 -0.68 -7.33 -0.19 -1.96 -1.4 1.38c-2.13,2.09 -4.54,3.7 -7.14,4.81 -2.67,1.13 -5.42,1.7 -8.17,1.7 -2.75,0 -5.34,-0.57 -7.68,-1.7 -4.35,-2.09 -7.49,-5.88 -8.84,-10.67 -0.64,-2.25 -0.81,-4.63 -0.51,-7.07l0.32 -2.59 -1.9 1.8c-1.33,1.27 -2.77,2.48 -4.28,3.59l-0.51 0.38 0.16 0.61 5.44 20.87 0.96 3.7 -3.64 1.16 -10.24 3.28 -3.42 1.1 0 0 0 0 -1.49 -3.29 -18.91 -42.21 -0.39 -0.87 -0.86 0.4 -0.57 0.26 -3.37 1.65c-0.5,-0.83 -1.32,-2.23 -1.89,-3.19l-7.62 -12.87 -1.99 -3.36 3.29 -2.09c3.12,-1.98 6.64,-3.82 10.47,-5.45 7.62,-3.25 15.4,-4.97 22.49,-4.97 2.34,0 4.59,0.19 6.72,0.56 3.53,0.4 6.8,1.56 9.5,3.36 4.03,2.25 7.2,5.75 8.99,9.88 1.47,3.39 1.76,7.37 0.82,11.49l-0.55 2.43 2.02 -1.46c1.35,-0.99 2.83,-1.83 4.38,-2.5 2.68,-1.14 5.45,-1.71 8.23,-1.71 2.63,0 5.11,0.51 7.39,1.54l1.46 0.66 -0.14 -1.6 -0.64 -6.92 -0.1 -1.1 -1.07 0.28 -3.21 0.83 -0.56 -11.78 23.47 -7.5 -0.19 9.16 1.77 0.45 5.13 -9.82 15.35 13.61 0.64 0.57 0.63 -0.58c2.1,-1.98 4.59,-3.57 7.41,-4.72l1.17 -0.48 -0.8 -0.98 -2.77 -3.37 17.63 -20.32 9.23 13.77 -17.27 9.29 3.56 0.07c9.31,0.2 13.73,4.31 19.12,10.96l-6.81 7.25 11.43 10.19zm-126.51 -11.54c-0.53,0 -1.07,0.05 -1.62,0.15l-0.7 0.13 -1.03 0.2 0.31 1 0.2 0.65 2.93 9.58 0.29 0.92 0.44 1.38 1.08 -0.96 0.72 -0.64c2.84,-2.55 3.83,-5.14 3.23,-8.41 -0.37,-1.96 -1.89,-2.93 -2.76,-3.34 -0.91,-0.44 -1.96,-0.66 -3.09,-0.66l0 0 0 0zm78.47 0.31l-1.83 1.78 -4.81 4.69 -1.05 1.02 1.36 0.52 5.17 2 1.59 0.61 -0.33 -1.67c-0.43,-2.15 -0.54,-4.31 -0.34,-6.41l0.24 -2.54 0 0zm21.05 -5.32c-2,0 -3.94,0.86 -5.31,2.35 -2.08,2.28 -2.49,5.64 -1.01,8.35l0.39 0.74 0.64 1.18 0.89 -1 0.57 -0.63 8.51 -9.73c-1.54,-0.58 -3,-1.26 -4.68,-1.26l0 0 0 0z"/>
  </g>
  <path id="path88" class="fil6" d="M185.71 71.4c-0.07,0.06 -0.13,0.14 -0.19,0.22 0.08,-0.07 0.15,-0.13 0.22,-0.19l-0.03 -0.03 0 0z"/>
  <path id="polygon90" class="fil6" d="M191.8 65.76l3.53 -3.77 -1.2 1.28 0.03 -0.16 -1.07 1.13 -3.52 3.75 3.3 2.97 0.6 -3.7 1.64 1.47 -3.31 -2.97z"/>
  <path id="path94" class="fil6" d="M147.86 71.91l0.05 0.02 -0.05 -0.02z"/>
  <path id="polygon100" class="fil7" d="M133.39 62.61l9.52 -13.39 -0.38 -0.36 -9.19 12.91 0.05 0.84z"/>
  <path id="path164" class="fil8" d="M116.26 77.67c0,2.47 -2.25,4.45 -5,4.45 -2.76,0 -5,-1.98 -5,-4.45 0,-2.3 1.97,-4.2 4.49,-4.42 -0.48,-0.09 -0.98,-0.14 -1.5,-0.14 -4.61,0 -8.25,3.42 -8.25,7.49 0,4.34 3.64,7.75 8.17,7.75 4.62,0 8.25,-3.41 8.25,-7.75 0,-1.5 -0.5,-2.92 -1.35,-4.09 0.12,0.35 0.19,0.74 0.19,1.16zm-46.77 -13.12l5.46 17.93c17.77,-11.42 4.79,-23.52 -5.46,-17.93zm98.92 -3.14c-3.68,4 -2.87,10.13 1.49,13.23l11.62 -13.16c-3.63,-3.8 -9.49,-4.04 -13.11,-0.07zm1.51 8.71c-2.54,-4.67 2.13,-9.97 7.07,-8.06l-7.07 8.06zm33.19 5.81l-11.3 -10.18 6.66 -7.17c-5.74,-7.13 -10.26,-11.7 -20.3,-11.91l15.05 -8.09 -10.49 -15.65 -18.96 21.84 3.27 3.98c-2.96,1.22 -5.55,2.89 -7.69,4.9l-16.26 -14.42 -5.68 10.89 0.22 -10.46 -25.41 8.12 0.65 13.65 4.33 -1.13 0.64 6.92c-6.89,-3.09 -14.96,-1.57 -20.94,2.77 2.97,-13.17 -7.3,-23.98 -20.07,-25.87 -16.2,-2.38 -31.17,4.19 -44.4,12.57 2.01,3.4 12.39,20.96 12.41,20.95l4.69 -2.28 20.74 46.27 18.95 -6.06 -6.62 -25.44c1.56,-1.15 3.02,-2.38 4.37,-3.66 -2.36,19.29 20.22,27.11 33.93,13.71l0.77 8.31 17.92 -2.64 -0.02 -16.07 37.45 18.51 0 -17.92c11.5,-0.97 18.41,-6.54 26.09,-14.44zm-21.19 -46.05l5.54 7.53 -15.86 7.87 -1.09 -1.67 11.41 -13.73zm-105.02 58.11l6.33 24.27 -10.24 3.27 -21.02 -46.93c-1.14,0.6 -3.25,1.61 -5.19,2.56l-7.61 -12.85c10.24,-6.54 24.64,-10.91 36.79,-9.27 23.07,3.1 19.81,27.3 0.94,38.95zm34.87 12.88c-8.88,3.76 -17.77,0 -20.14,-8.44 -4,-14.2 14.26,-29.06 26.63,-20.66 11.11,7.54 4.75,24.26 -6.49,29.1zm60.55 -0.04l-37.16 -18.59 0.07 19.48 -9.62 1.31 -0.67 -8.03c4.54,-7.77 4.6,-17.79 -2.05,-24.34l-1.38 -16.36 -4.31 1.12 -0.19 -4.14 15.43 -4.6 0.95 15.92 11.37 -15.97 11.12 10.58 -15.55 16.38 14.61 5.78c3.45,6.54 10.17,10.27 17.38,10.98l0 10.48zm-19.29 -26.93l-5.17 -1.99 4.82 -4.69c-0.21,2.15 -0.1,4.4 0.35,6.68zm23.99 11.6c-15.62,1.47 -25.3,-13.52 -16.73,-25.67 6.88,-9.88 23.64,-11.57 31.61,-1.79l-15.47 16.47c4.14,0.79 8.94,-2.33 11.51,-5.35l8.06 7.25c-4.94,5.11 -11.92,8.43 -18.98,9.09zm-102.98 -18.67c6.63,-1.18 7.67,5.33 2.92,9.56 0,0 -2.66,-8.66 -2.92,-9.56z"/>
  <path class="fil9" d="M219.46 113.88l-10.9 2.3 5.46 17.24 -11.34 17.21 14.65 -2.58 23.84 -36.07 -14.11 1.86 -5.34 7.87 -2.26 -7.83zm-36.1 11.14l-0.39 4.61 -1.52 0.34 0.74 -5.01 1.17 0.06zm-150.57 12.31l-12.19 36.78 13.58 -2.98 3.85 -16.43c0.17,-0.02 2.21,7.83 2.35,8.34l5.89 -8.47 -4.5 18.45 14.43 -4.15 4.6 -35.35 -9.84 0.87 -6.84 9.78 -1.6 -8.67 -9.73 1.83zm36.99 -5.21l-8.76 36.64 26.06 -5.3 0 -9.31 -12.76 3.79 0.57 -3.81 7.09 -2.57 2.11 -8.64 -7.32 0.96 0.44 -2.27 12.53 -3.98 0 -8.14 -19.96 2.63zm34.07 -4.16l-12.18 36.78 13.57 -2.97 3.85 -16.43c0.17,-0.03 2.21,7.83 2.35,8.34l5.89 -8.47 -4.5 18.44 14.43 -4.14 4.6 -35.35 -9.84 0.86 -6.83 9.78 -1.61 -8.66 -9.73 1.82zm69.07 -9.76l-9.71 39.42c0.07,-0.01 5.12,-1.48 15.14,-4.44l1.81 -13.02 4.47 13.37 12.59 -3.69 -7.89 -15.69 3.4 -0.45 3.63 -18.49 -23.44 2.99z"/>
  <path class="fil10" d="M160.97 138.78c0.69,-6.46 1.38,-12.92 2.07,-19.39 -6.74,0.93 -13.47,1.85 -20.21,2.78 -1.37,4.74 -2.74,9.49 -4.12,14.23 3.23,1.15 6.75,1.96 10.5,2.37 3.75,0.41 7.69,0.42 11.76,0.01z"/>
  <path class="fil11" d="M160.97 138.78c-0.56,5.21 -1.11,10.42 -1.67,15.63 -9.16,1.92 -18.32,3.85 -27.48,5.77 2.3,-7.93 4.6,-15.85 6.89,-23.78 3.23,1.15 6.75,1.96 10.5,2.37 3.75,0.41 7.69,0.42 11.76,0.01z"/>
  <path class="fil12" d="M150.82 132.83c2.7,-0.44 4.47,1.48 3.99,4.57 -0.49,3.09 -3.27,6.29 -6.23,6.84 -2.97,0.54 -4.75,-1.87 -3.99,-5.08 0.75,-3.2 3.54,-5.9 6.23,-6.33z"/>
  <path class="fil13" d="M160.84 139.99c-1.62,0.17 -3.21,0.28 -4.79,0.32 -4.8,9.99 -16.86,8.76 -13.68,-1.33 -1.4,-0.33 -2.76,-0.72 -4.07,-1.16 0.28,-0.95 0.55,-1.88 0.81,-2.81 1.43,0.51 2.91,0.95 4.45,1.31 4.5,-7.58 15.4,-8.28 13.4,1.31 1.37,-0.04 2.76,-0.13 4.16,-0.27 -0.09,0.87 -0.19,1.74 -0.28,2.63z"/>
  <path class="fil11" d="M150.75 133.06c2.69,-0.43 4.47,1.48 3.98,4.57 -0.49,3.1 -3.27,6.29 -6.23,6.84 -2.97,0.55 -4.75,-1.87 -3.99,-5.07 0.76,-3.21 3.54,-5.91 6.24,-6.34z"/>
  <path class="fil14" d="M219.46 113.88l-10.9 2.3 5.46 17.24 -11.34 17.21 2.69 -0.48 10.12 -15.35 -5.46 -17.25 9.89 -2.08 -0.46 -1.59zm20.57 -0.18l1.14 -1.72 -14.11 1.86 -5.34 7.87 0.71 2.49 6.1 -8.98 11.5 -1.52zm-55.5 11.38l-0.04 4.21 -1.52 0.34 0.39 -4.61 1.17 0.06zm-151.74 12.25l-12.19 36.78 2.08 -0.46 11.57 -34.94 8.57 -1.61 -0.3 -1.6 -9.73 1.83zm5.24 17.37c0.6,2.2 2.27,8.06 2.35,8.34l0.8 -1.14c-0.66,-2.47 -2.59,-9.16 -2.7,-9.15l-0.45 1.95zm8.24 -0.13l-4.5 18.45 1.94 -0.56 5.34 -21.89 -2.78 4zm14.33 -19.52l0.2 -1.53 -9.84 0.87 -6.84 9.78 0.51 2.75 7.8 -11.15 8.17 -0.72zm9.18 -2.93l-8.76 36.64 1.89 -0.38 8.33 -34.88 18.5 -2.44 0 -1.57 -19.96 2.63zm17.3 23.85l0 -1.82 -12.76 3.79 -0.28 1.9 13.04 -3.87zm-3.39 -11.43l0.4 -1.62 -7.32 0.96 -0.31 1.62 7.23 -0.96zm20.16 -16.58l-12.18 36.78 2.07 -0.45 11.58 -34.95 8.56 -1.61 -0.3 -1.59 -9.73 1.82zm5.24 17.38c0.6,2.2 2.27,8.05 2.35,8.34l0.8 -1.15c-0.66,-2.47 -2.58,-9.16 -2.69,-9.14l-0.46 1.95zm8.24 -0.13l-4.5 18.44 1.94 -0.55 5.34 -21.9 -2.78 4.01zm14.33 -19.53l0.2 -1.52 -9.84 0.86 -6.83 9.78 0.51 2.76 7.79 -11.16 8.17 -0.72zm41.26 -7.48l-9.71 39.42c0.03,0 0.68,-0.19 1.95,-0.56l9.22 -37.48 21.66 -2.77 0.32 -1.6 -23.44 2.99zm7.24 21.96l4.47 13.37 0.92 -0.27 -5.09 -15.23 -0.3 2.13z"/>
  <path class="fil15" d="M54.63 123.4l-13.16 -29.84 -3.83 1.64 -19.19 -32.4 0 -3.43 19.19 32.41 3.83 -1.65 14.63 33.17 -1.47 0.1zm150.28 -81.91l0 3.43 -5.21 2.8c-0.76,-0.76 -1.53,-1.49 -2.33,-2.18l7.54 -4.05zm4.27 17.46l0 3.43 -4.11 4.42 -1.73 -1.56 5.84 -6.29zm5.6 16.58l0 3.43c-8.57,8.83 -18.02,19.03 -29.65,23.53l0 -3.42c10.83,-4.19 21.55,-15.17 29.65,-23.54zm43.15 34.56l0 3.43 -32.53 49.2 -26.95 4.73 -1.2 -1.05 -13.99 4.1 -1.98 -1.66 -20.48 5.59 -3.97 -3.27 -28.01 5.86 -1.22 -1.07 -17.19 4.94 -3.87 -3.15 -17.94 3.91 -1.95 -1.7 -28.54 5.56 -0.61 -0.54 -18.13 5.31 -3.89 -3.18 -17.94 3.92 -9.61 -8.39 0 -3.43 9.61 8.39 17.94 -3.91 3.89 3.17 18.13 -5.31 0.61 0.54 28.54 -5.55 1.95 1.7 17.94 -3.92 3.87 3.16 17.19 -4.95 1.22 1.08 28.01 -5.87 3.97 3.28 20.48 -5.6 1.98 1.66 13.99 -4.1 1.2 1.05 26.95 -4.72 32.53 -49.21z"/>
  <path id="path122" class="fil7" d="M154.94 79.37l-14.61 -5.78 -2.07 2.24 14.44 5.78c3.47,6.53 10.15,10.28 17.39,10.97l0 7.13 2.23 1.12 0 -10.48c-7.21,-0.71 -13.93,-4.44 -17.38,-10.98zm-115.35 -20.35c12.81,-7.27 43.94,-16.13 49.63,3.12 2.43,8.22 -2.93,16.87 -9.25,23.74 16.09,-12.23 17.75,-33.92 -4.01,-36.84 -12.15,-1.64 -26.55,2.73 -36.79,9.27l0.42 0.71zm43.64 53.24l-6.33 -24.27 -2.44 1.72 6.24 23.36 2.53 -0.81zm-0.63 -37.27c-1.29,2.4 -3.71,4.96 -7.65,7.49l-5.46 -17.93 -1.63 2.08 5.46 17.95c2.69,-1.74 7.59,-5.86 9.28,-9.59zm31.24 3.74c0.28,0.95 0.21,1.95 -0.2,2.85l0 0 0.02 -0.01c0.05,-0.03 0.12,-0.06 0.21,-0.11 1.43,-0.78 2.39,-2.18 2.39,-3.79 0,-0.42 -0.07,-0.81 -0.19,-1.16l-2.23 2.22zm-5.32 -3.25c-0.02,0.04 2.15,-2.15 2.21,-2.23 -1.67,0.15 -3.09,1.04 -3.86,2.29 -0.11,0.19 -0.18,0.34 -0.23,0.42l-0.01 0.02 0 0.02 -0.01 0.02 -0.01 0.01c0.58,-0.28 1.23,-0.48 1.91,-0.55zm8.49 -24.2l0.07 1.55 13.13 -3.91 1 17.01 2.18 -3.32 -0.95 -15.93 -15.43 4.6zm-20.91 24.89c15.86,-13.36 34.73,4.78 21.15,21.1 7.47,-6.91 10.14,-19.3 1.01,-25.5 -7.26,-4.92 -16.54,-1.85 -22.16,4.4zm7.94 -1.37c-3.69,2.36 -5.27,5.54 -5.27,8.05 0,4.32 3.79,7.79 8.33,7.79 2.14,0 6.07,-1.14 8.64,-5.3l-0.01 0.01c-1.5,1.84 -3.86,3 -6.56,3 -4.53,0 -8.17,-3.41 -8.17,-7.75 0,-2.32 1.18,-4.42 3.04,-5.8zm51.84 -17.59l-11.12 -10.58 -1.85 2.59 10.87 10.21 2.1 -2.22zm28.73 -18.38l2.85 -1.42 -5.54 -7.53 -2.07 2.48 4.76 6.47zm-8.18 35.68l-2.19 2.35c3.89,0.76 8.66,-2.46 11.51,-5.41l7.92 7.12 0 0c0.82,-0.68 1.6,-1.4 2.33,-2.16l-8.06 -7.25c-2.57,3.02 -7.37,6.14 -11.51,5.35zm-15.31 -15.77c8.16,-6.89 21.59,-7.03 28.59,1.63l2.19 -2.33c-7.67,-9.4 -23.46,-8.2 -30.78,0.7zm7.25 17.64l1.53 -1.74c-4.36,-3.1 -5.17,-9.23 -1.49,-13.23 0.19,-0.21 0.73,-0.66 0.85,-0.82 -5.18,3.42 -5.87,12.38 -0.89,15.79zm-35.44 8.17l0.05 17.47 2.25 -0.3 -0.07 -19.48 -2.23 2.31z"/>
  <path id="path158" class="fil6" d="M74.67 68.93c3.48,0.75 4.03,4.29 2.29,7.46 4.75,-4.23 3.71,-10.74 -2.92,-9.56 0.07,0.24 0.31,1.05 0.63,2.1z"/>
  <path id="path156" class="fil6" d="M170.26 64.12c1.53,-0.9 3.81,-1.09 5.45,-0.6l1.28 -1.46c-2.71,-1.05 -5.33,0.07 -6.73,2.06z"/>
 </g>
</svg>
