<?xml version="1.0" encoding="UTF-8"?>
<!DOCTYPE svg PUBLIC "-//W3C//DTD SVG 1.1//EN" "http://www.w3.org/Graphics/SVG/1.1/DTD/svg11.dtd">
<!-- Creator: CorelDRAW 2020 (64-Bit) -->
<svg xmlns="http://www.w3.org/2000/svg" xml:space="preserve" width="450px" height="150px" version="1.1" style="shape-rendering:geometricPrecision; text-rendering:geometricPrecision; image-rendering:optimizeQuality; fill-rule:evenodd; clip-rule:evenodd"
viewBox="0 0 450 150"
 xmlns:xlink="http://www.w3.org/1999/xlink"
 xmlns:xodm="http://www.corel.com/coreldraw/odm/2003">
 <defs>
  <style type="text/css">
   <![CDATA[
    .fil12 {fill:black}
    .fil14 {fill:#996699}
    .fil0 {fill:#E6E6E6}
    .fil11 {fill:#FF1520}
    .fil2 {fill:white}
    .fil1 {fill:white}
    .fil4 {fill:#1D2C5E;fill-rule:nonzero}
    .fil9 {fill:#333333;fill-rule:nonzero}
    .fil8 {fill:#3C5AA6;fill-rule:nonzero}
    .fil6 {fill:#7D7F68;fill-rule:nonzero}
    .fil7 {fill:#C7A008;fill-rule:nonzero}
    .fil5 {fill:#FFCB05;fill-rule:nonzero}
    .fil13 {fill:white;fill-rule:nonzero}
    .fil10 {fill:url(#id0);fill-rule:nonzero}
    .fil3 {fill:url(#id1);fill-rule:nonzero}
   ]]>
  </style>
  <linearGradient id="id0" gradientUnits="userSpaceOnUse" x1="269.54" y1="73.93" x2="276.47" y2="111.93">
   <stop offset="0" style="stop-opacity:1; stop-color:#999999"/>
   <stop offset="0.278431" style="stop-opacity:1; stop-color:#CCCCCC"/>
   <stop offset="1" style="stop-opacity:1; stop-color:white"/>
  </linearGradient>
  <linearGradient id="id1" gradientUnits="userSpaceOnUse" x1="876.14" y1="37.01" x2="887.55" y2="24.73">
   <stop offset="0" style="stop-opacity:1; stop-color:#0070B6"/>
   <stop offset="1" style="stop-opacity:1; stop-color:#1D2C5E"/>
  </linearGradient>
 </defs>
 <g id="Layer_x0020_1">
  <metadata id="CorelCorpID_0Corel-Layer"/>
  <g id="_1363165632">
   <path class="fil0" d="M198.21 71.19l14.67 -1.31 0.06 -0.26 36.23 -4.78 0.86 0.78 0.05 -0.15 22.07 -4.13 0.02 -0.02 0.16 -0.02 1.84 -0.34 0.2 0.18 17.07 -1.42 0.23 -0.79 36.27 -5 0.15 0.14 35.84 -4.57 2.64 2.42 21.38 -4.22 1.42 1.29 24.01 -3.16 11.62 10.81 -35.26 53.35 -29.39 5.16 -1.26 -1.1 -14.99 4.39 -2.13 -1.78 -21.95 5.99 -4.28 -3.52 -30.02 6.29 -1.29 -1.13 -18.42 5.29 -4.16 -3.4 -19.25 4.2 -2.09 -1.82 -30.59 5.95 -0.64 -0.56 -19.42 5.69 -4.19 -3.42 -19.24 4.2 -10.8 -9.43 6.97 -21.16 -21.08 -10.44 -10.47 5.48 -27.33 4.05 -0.22 -2.47c-1.52,0.24 -3.06,0.36 -4.59,0.34l-9.39 6.31 -26.09 8.23 -16.56 -37.54 -2.94 1.26 -18.93 -31.96 9.45 -9.63 4.43 -2.81c3.32,-2.11 6.83,-3.91 10.45,-5.45 15.05,-6.41 35.69,-7.96 47.88,3.33l7.55 -4.07 31.26 -9.99 0.32 -0.17 0.06 0.05 4.18 -1.33 -0.1 4.94 4.56 4.05 13.42 -15.43 13.56 -7 20.02 29.87 -5.7 3.06c1.21,1.29 2.37,2.67 3.53,4.1l5.42 6.73 -4.65 5.01 9.85 8.86 -3.16 3.19 0.88 0.79z"/>
   <path class="fil1" d="M387.91 57.52l0.74 -1.09 22.28 -2.94 4.6 4.28 -30.14 45.59 -22.87 4.01 -1.65 -1.43 -15.08 4.41 -2.06 -1.72 -21.99 6 -4.07 -3.35 -29.88 6.26 -1.55 -1.35 -18.58 5.34 -3.93 -3.21 -19.1 4.17 -2.01 -1.76 -30.6 5.95 -0.96 -0.84 -19.56 5.73 -3.94 -3.21 -19.1 4.17 -4.4 -3.85 15.4 -46.8 16.33 -3.06 2.36 2.15 1.84 -2.63 16.07 -1.43 2.16 1.95 0.64 -2.68 27.91 -3.68 3.84 3.48 0 11.05 5.03 -15.19 16.32 -3.06 2.37 2.15 1.84 -2.64 16.02 -1.32 3.79 3.25 1.37 -4.72 28.21 -3.89 3.11 2.82 0.78 -3.19 32.05 -4.09 3.98 3.65 -0.38 -1.17 20.66 -4.08 2.15 1.97zm-22.38 3.44l-5.29 26.96 -0.38 0.05 3.39 6.71 8.85 -13.41 -6.57 -20.31z"/>
   <path class="fil2" d="M159.94 100.38l-25.27 -12.51 0 6.88 -5.91 3.1 -18.48 2.73 -0.37 -4.08c-5.88,3.47 -13.07,4.19 -19.09,0.91l1.22 5.22 -5.71 3.84 -18.87 5.95 -16.83 -38.17 -3.69 1.58 -12.82 -21.64 4.94 -5.03 3.72 -2.36c2.99,-1.89 6.15,-3.52 9.41,-4.9 14.54,-6.2 37.62,-8.12 45.18,9.34 0.9,2.07 1.36,4.27 1.44,6.5 1.2,-0.48 2.45,-0.87 3.71,-1.13l-0.6 -12.34 5.7 -3.08 25.47 -8.14 -0.03 1.32 2.27 -1.23 10.37 9.2 17.34 -19.93 6.55 -3.38 11.93 17.8 -8.7 4.68c4.81,1.92 8.1,5.6 11.38,9.67l1.46 1.82 -5.39 5.82 9.66 8.69c-6.14,6.34 -14.68,14.53 -23.39,16.79l0.01 12.51 -6.61 3.57z"/>
   <path id="polygon25" class="fil3" d="M164.74 24.58l-16.23 18.61 4.05 -2.06 16.13 -18.59 -3.95 2.04z"/>
   <path id="polygon62" class="fil4" d="M131 38.57l-0.76 1.44 -0.12 5.68 4.84 -9.27 -3.96 2.15zm-26.3 7.27l0.57 11.56 3.73 -0.94 0.23 2.56c1.44,0.2 2.86,0.6 4.23,1.22l-0.54 -5.89 -3.68 0.95 -0.56 -11.6 -3.98 2.14zm7.47 45.45c-11.57,6.9 -26.77,0.03 -24.98,-14.67 -1.15,1.09 -2.39,2.13 -3.72,3.12l2.25 8.63c5.52,10.77 18.34,10.49 26.45,3.17l0.54 5.95 15.2 -2.25 4.06 -2.12 -15.25 2.24 -0.65 -7.07c-1.23,1.2 -2.54,2.19 -3.9,3zm47.71 6.05l-27.92 -13.83 -0.01 -4.07 31.9 15.76 -3.97 2.14zm-107.86 -26.63l16.98 38.51 16.13 -5.2 3.94 -2.65 -16.09 5.18 -17.65 -39.39 -3.99 1.95 -10.56 -17.84 -3.28 3.34 10.55 17.8 3.97 -1.7zm125.41 4.48c-3.84,2.59 -8.1,4.29 -13.6,4.75l0 2.42c6.51,-0.97 9.77,-4.14 13.6,-7.17zm-36.32 -10.16c-0.07,-0.94 -0.08,-1.88 -0.05,-2.8l0 0 2.05 -1.99c-0.17,1.83 -0.08,3.74 0.3,5.68l-2.3 -0.89zm10.25 -18.46l-3.1 1.65 0.53 0.47c1.83,-1.72 4.03,-3.14 6.55,-4.17l-2.78 -3.39 -4.05 2.06 2.85 3.38z"/>
   <g id="g84">
    <path id="path86" class="fil5" d="M185 67.71l-8.5 7.3c-2.55,1.54 -5.49,2.69 -8.96,3.53 -1.22,0.29 -2.49,0.5 -3.78,0.6l-0.73 0.07 0 0.73 0 13.96 -30.72 -15.18 -1.16 -0.57 0 1.29 0.02 12.98 -13.73 2.03 -0.58 -6.24 -0.16 -1.67 -1.19 1.18c-1.82,1.77 -3.86,3.15 -6.08,4.09 -2.27,0.97 -4.61,1.45 -6.95,1.45 -2.35,0 -4.54,-0.49 -6.54,-1.44 -3.71,-1.78 -6.38,-5.02 -7.52,-9.09 -0.55,-1.92 -0.69,-3.94 -0.44,-6.01l0.27 -2.21 -1.61 1.53c-1.14,1.08 -2.36,2.11 -3.64,3.06l-0.44 0.32 0.14 0.52 4.63 17.76 0.81 3.15 -3.1 0.99 -8.71 2.79 -2.91 0.94 0 0 0 0 -1.26 -2.8 -16.1 -35.93 -0.33 -0.74 -0.74 0.34 -0.48 0.22 -2.87 1.41c-0.42,-0.71 -1.13,-1.9 -1.61,-2.72l-6.48 -10.95 -1.7 -2.86 2.81 -1.78c2.65,-1.69 5.64,-3.25 8.9,-4.64 6.49,-2.77 13.11,-4.23 19.15,-4.23 1.98,0 3.9,0.16 5.71,0.48 3.01,0.34 5.79,1.33 8.09,2.86 3.43,1.91 6.13,4.89 7.65,8.4 1.25,2.89 1.5,6.28 0.7,9.79l-0.47 2.06 1.72 -1.24c1.15,-0.84 2.41,-1.56 3.73,-2.13 2.28,-0.97 4.64,-1.46 7,-1.46 2.24,0 4.35,0.45 6.29,1.32l1.25 0.56 -0.13 -1.37 -0.54 -5.88 -0.09 -0.94 -0.91 0.24 -2.72 0.71 -0.48 -10.03 19.98 -6.38 -0.17 7.79 1.51 0.39 4.36 -8.36 13.07 11.59 0.55 0.48 0.53 -0.5c1.79,-1.68 3.91,-3.03 6.3,-4.01l1 -0.41 -0.68 -0.84 -2.36 -2.87 15.01 -17.29 7.85 11.72 -14.7 7.9 3.04 0.07c7.92,0.16 11.68,3.67 16.27,9.33l-5.8 6.17 9.73 8.67zm-107.67 -9.83c-0.45,0 -0.92,0.05 -1.38,0.13l-0.6 0.11 -0.87 0.17 0.26 0.86 0.17 0.55 2.49 8.15 0.25 0.79 0.37 1.17 0.93 -0.82 0.61 -0.54c2.41,-2.17 3.26,-4.38 2.75,-7.16 -0.32,-1.66 -1.61,-2.49 -2.36,-2.84 -0.77,-0.37 -1.66,-0.57 -2.62,-0.57l0 0 0 0zm66.79 0.27l-1.56 1.52 -4.1 3.98 -0.9 0.87 1.17 0.45 4.4 1.7 1.35 0.52 -0.28 -1.42c-0.37,-1.83 -0.46,-3.67 -0.29,-5.45l0.21 -2.17 0 0zm17.91 -4.53c-1.71,0 -3.35,0.73 -4.52,2.01 -1.77,1.93 -2.12,4.79 -0.86,7.1l0.34 0.63 0.53 1 0.76 -0.84 0.49 -0.54 7.25 -8.29c-1.32,-0.48 -2.56,-1.07 -4,-1.07l0 0 0.01 0z"/>
   </g>
   <path id="path88" class="fil6" d="M171.23 63.79c-0.06,0.05 -0.11,0.12 -0.16,0.19 0.06,-0.06 0.12,-0.11 0.18,-0.16l-0.02 -0.03 0 0z"/>
   <path id="polygon90" class="fil6" d="M176.42 58.99l3 -3.21 -1.03 1.1 0.03 -0.14 -0.91 0.96 -3 3.19 2.81 2.53 0.51 -3.15 1.4 1.25 -2.81 -2.53z"/>
   <path id="path94" class="fil6" d="M139.01 64.22l0.05 0.02 -0.05 -0.02z"/>
   <path id="polygon100" class="fil7" d="M126.7 56.31l8.11 -11.39 -0.33 -0.31 -7.82 10.99 0.04 0.71z"/>
   <path id="path164" class="fil8" d="M112.12 69.13c0,2.1 -1.92,3.78 -4.26,3.78 -2.34,0 -4.25,-1.68 -4.25,-3.78 0,-1.96 1.68,-3.58 3.82,-3.76 -0.41,-0.08 -0.83,-0.12 -1.28,-0.12 -3.92,0 -7.02,2.91 -7.02,6.37 0,3.7 3.1,6.6 6.96,6.6 3.93,0 7.02,-2.9 7.02,-6.6 0,-1.28 -0.43,-2.48 -1.15,-3.48 0.1,0.3 0.16,0.63 0.16,0.99zm-39.81 -11.16l4.65 15.26c15.12,-9.73 4.07,-20.02 -4.65,-15.26zm84.19 -2.68c-3.13,3.41 -2.43,8.62 1.27,11.26l9.9 -11.2c-3.1,-3.24 -8.08,-3.44 -11.17,-0.06zm1.29 7.41c-2.16,-3.97 1.81,-8.48 6.02,-6.86l-6.02 6.86zm28.25 4.94l-9.62 -8.65 5.67 -6.11c-4.88,-6.06 -8.73,-9.96 -17.28,-10.14l12.81 -6.88 -8.93 -13.32 -16.13 18.59 2.78 3.39c-2.52,1.03 -4.72,2.45 -6.55,4.17l-13.83 -12.27 -4.84 9.27 0.19 -8.91 -21.63 6.91 0.56 11.61 3.68 -0.95 0.54 5.89c-5.86,-2.64 -12.72,-1.34 -17.82,2.35 2.53,-11.2 -6.21,-20.41 -17.08,-22.01 -13.79,-2.03 -26.53,3.56 -37.79,10.7 1.71,2.89 10.55,17.83 10.57,17.83l3.99 -1.95 17.65 39.39 16.12 -5.16 -5.63 -21.65c1.33,-0.99 2.57,-2.03 3.72,-3.12 -2,16.42 17.21,23.08 28.88,11.67l0.65 7.07 15.26 -2.24 -0.03 -13.68 31.88 15.75 0 -15.25c9.79,-0.82 15.67,-5.56 22.21,-12.3zm-18.04 -39.19l4.72 6.42 -13.5 6.69 -0.93 -1.42 9.71 -11.69zm-89.38 49.46l5.38 20.66 -8.71 2.79 -17.89 -39.95c-0.97,0.51 -2.77,1.37 -4.42,2.18l-6.47 -10.94c8.71,-5.57 20.97,-9.28 31.31,-7.89 19.64,2.64 16.86,23.24 0.8,33.15zm29.68 10.97c-7.56,3.2 -15.12,0 -17.14,-7.18 -3.41,-12.09 12.13,-24.74 22.66,-17.59 9.46,6.42 4.04,20.65 -5.52,24.77zm51.54 -0.04l-31.63 -15.82 0.05 16.58 -8.18 1.11 -0.57 -6.83c3.86,-6.61 3.91,-15.14 -1.75,-20.71l-1.17 -13.93 -3.67 0.95 -0.17 -3.52 13.14 -3.91 0.81 13.55 9.68 -13.6 9.46 9.01 -13.23 13.94 12.43 4.92c2.93,5.56 8.66,8.74 14.79,9.35l0.01 8.91zm-16.43 -22.92l-4.4 -1.69 4.1 -3.99c-0.17,1.83 -0.08,3.74 0.3,5.68zm20.42 9.88c-13.29,1.25 -21.53,-11.51 -14.24,-21.85 5.86,-8.42 20.12,-9.85 26.91,-1.52l-13.17 14.01c3.53,0.67 7.61,-1.99 9.8,-4.56l6.86 6.18c-4.2,4.34 -10.15,7.17 -16.16,7.74zm-87.65 -15.89c5.64,-1.01 6.53,4.53 2.49,8.13 0,0 -2.26,-7.37 -2.49,-8.13z"/>
   <path id="path122" class="fil7" d="M145.04 70.58l-12.43 -4.92 -1.77 1.9 12.29 4.92c2.95,5.57 8.64,8.75 14.8,9.34l0 6.07 1.91 0.95 -0.01 -8.91c-6.13,-0.61 -11.86,-3.79 -14.79,-9.35zm-98.18 -17.33c10.91,-6.18 37.4,-13.72 42.24,2.66 2.07,7 -2.49,14.36 -7.87,20.21 13.69,-10.41 15.11,-28.87 -3.41,-31.36 -10.34,-1.39 -22.6,2.32 -31.31,7.89l0.35 0.6zm37.14 45.32l-5.38 -20.66 -2.08 1.46 5.31 19.89 2.15 -0.69zm-0.53 -31.72c-1.1,2.04 -3.16,4.22 -6.51,6.38l-4.65 -15.26 -1.38 1.77 4.64 15.27c2.29,-1.48 6.46,-4.99 7.9,-8.16zm26.59 3.19c0.24,0.8 0.18,1.65 -0.17,2.42l0 0 0.02 -0.01c0.04,-0.02 0.1,-0.05 0.17,-0.09 1.22,-0.67 2.04,-1.86 2.04,-3.23 0,-0.36 -0.06,-0.69 -0.16,-0.99l-1.9 1.9zm-4.53 -2.77c-0.01,0.03 1.83,-1.83 1.88,-1.9 -1.42,0.13 -2.63,0.88 -3.28,1.95 -0.1,0.16 -0.16,0.28 -0.19,0.36l-0.01 0.01 -0.01 0.02 -0.01 0.01 0 0.01c0.49,-0.24 1.04,-0.41 1.62,-0.46zm7.22 -20.6l0.06 1.32 11.18 -3.33 0.86 14.48 1.85 -2.83 -0.81 -13.55 -13.14 3.91zm-17.79 21.18c13.5,-11.37 29.56,4.07 18,17.96 6.36,-5.88 8.63,-16.43 0.86,-21.7 -6.17,-4.19 -14.07,-1.58 -18.86,3.74zm6.76 -1.16c-3.14,2.01 -4.49,4.71 -4.49,6.85 0,3.67 3.23,6.63 7.09,6.63 1.83,0 5.17,-0.97 7.36,-4.51l-0.01 0.01c-1.28,1.56 -3.29,2.55 -5.58,2.55 -3.86,0 -6.96,-2.9 -6.96,-6.6 0,-1.97 1,-3.76 2.59,-4.93zm44.12 -14.97l-9.46 -9.01 -1.57 2.21 9.24 8.68 1.79 -1.88zm24.45 -15.65l2.43 -1.2 -4.72 -6.42 -1.76 2.12 4.05 5.5zm-6.96 30.37l-1.87 2c3.32,0.65 7.38,-2.1 9.81,-4.6l6.73 6.05 0 0c0.7,-0.57 1.36,-1.18 1.99,-1.83l-6.86 -6.18c-2.19,2.57 -6.27,5.23 -9.8,4.56zm-13.03 -13.42c6.94,-5.86 18.37,-5.98 24.34,1.39l1.86 -1.98c-6.53,-8.01 -19.97,-6.99 -26.2,0.59zm6.17 15.01l1.3 -1.48c-3.7,-2.64 -4.4,-7.85 -1.27,-11.26 0.17,-0.18 0.63,-0.56 0.73,-0.7 -4.41,2.91 -5,10.54 -0.76,13.44zm-30.17 6.96l0.05 14.87 1.91 -0.26 -0.05 -16.58 -1.91 1.97z"/>
   <path id="path158" class="fil6" d="M76.72 61.69c2.96,0.64 3.43,3.65 1.95,6.35 4.04,-3.6 3.15,-9.14 -2.49,-8.13 0.06,0.2 0.27,0.89 0.54,1.78z"/>
   <path id="path156" class="fil6" d="M158.08 57.6c1.31,-0.77 3.24,-0.93 4.64,-0.51l1.09 -1.25c-2.31,-0.89 -4.54,0.07 -5.73,1.76z"/>
   <path class="fil9" d="M386.91 60.32l0.35 3.08 2.97 -4.4 19.77 -2.61 1.95 1.81 -28.2 42.66 -20.42 3.58 -1.79 -1.57 -15.11 4.43 -2.05 -1.71 -1.18 -3.59 -0.56 4.07 -20.25 5.53 -2.08 -1.71 0.52 -2.08 -32.26 6.76 -1.64 -1.44 -18.64 5.36 -2.08 -1.7 1.86 -7.7 -1.64 -1.32 -0.3 -1.03 -2.01 8.68 -18.72 4.08 -1.99 -1.73 -30.59 5.95 -1.08 -0.94 -19.63 5.75 -2.07 -1.7 1.86 -7.7 -1.95 -2.35 -2.01 8.68 -18.71 4.08 -1.99 -1.73 14.33 -43.53 13.38 -2.5 1.99 1.8 0.56 3.11 4.01 -5.72 13.6 -1.21 1.99 1.8 -3.95 30.35 7.95 -33.25 24.77 -3.26 1.99 1.8 0 12.11 -5.93 1.89 0.38 0.33 -2.67 10.99 3.39 -1.02 1.98 1.81 0 9.35 12.73 -38.42 13.38 -2.5 1.99 1.8 0.57 3.12 4.01 -5.73 13.58 -1.13 2 1.72 -4.23 32.54 10.45 -36.08 25.17 -3.47 1.99 1.81 -3.37 31.52 8.39 -34.11 28.91 -3.69 1.97 1.81 -4.63 23.6 -2.25 0.3 7.26 14.41 12.19 -18.48 -6.45 -19.95 16.26 -3.21 1.98 1.8z"/>
   <path class="fil10" d="M383.04 60.8l-11.69 2.46 5.85 18.48 -12.15 18.44 15.7 -2.76 25.55 -38.66 -15.12 1.99 -5.73 8.44 -2.41 -8.39zm-38.7 11.93l-0.42 4.95 -1.63 0.36 0.79 -5.37 1.26 0.06zm-161.41 13.2l-13.05 39.42 14.55 -3.19 4.12 -17.61c0.18,-0.02 2.37,8.4 2.52,8.95l6.31 -9.09 -4.82 19.78 15.47 -4.44 4.93 -37.9 -10.54 0.93 -7.33 10.48 -1.72 -9.29 -10.44 1.96zm39.65 -5.58l-9.38 39.27 27.94 -5.68 0 -9.98 -13.68 4.06 0.6 -4.08 7.61 -2.76 2.25 -9.26 -7.84 1.04 0.47 -2.44 13.44 -4.27 0 -8.72 -21.41 2.82zm36.53 -4.46l-13.06 39.43 14.55 -3.2 4.13 -17.61c0.18,-0.02 2.36,8.4 2.52,8.95l6.31 -9.09 -4.82 19.78 15.47 -4.45 4.92 -37.89 -10.54 0.93 -7.33 10.48 -1.72 -9.29 -10.43 1.96zm74.03 -10.46l-10.4 42.25c0.08,-0.01 5.48,-1.59 16.22,-4.75l1.95 -13.97 4.79 14.33 13.49 -3.95 -8.45 -16.82 3.64 -0.48 3.89 -19.82 -25.13 3.21z"/>
   <path class="fil11" d="M320.34 87.48c0.74,-6.92 1.48,-13.85 2.21,-20.77 -7.21,0.99 -14.43,1.98 -21.65,2.97 -1.47,5.08 -2.95,10.17 -4.42,15.25 3.46,1.24 7.23,2.1 11.25,2.55 4.02,0.44 8.25,0.45 12.61,0z"/>
   <path class="fil1" d="M320.34 87.48c-0.6,5.59 -1.2,11.18 -1.8,16.76 -9.81,2.06 -19.63,4.12 -29.45,6.18 2.47,-8.5 4.93,-16.99 7.39,-25.49 3.46,1.24 7.23,2.1 11.25,2.55 4.02,0.44 8.25,0.45 12.61,0z"/>
   <path class="fil12" d="M320.2 88.78c-1.74,0.19 -3.45,0.3 -5.14,0.35 -5.14,10.71 -18.07,9.39 -14.66,-1.43 -1.51,-0.35 -2.96,-0.77 -4.36,-1.24 0.29,-1.02 0.58,-2.02 0.87,-3.01 1.53,0.54 3.12,1.01 4.77,1.4 4.82,-8.13 16.5,-8.87 14.36,1.4 1.47,-0.04 2.95,-0.14 4.46,-0.29 -0.1,0.93 -0.2,1.87 -0.3,2.82z"/>
   <path class="fil1" d="M309.53 81.46c2.89,-0.47 4.79,1.59 4.27,4.9 -0.53,3.32 -3.5,6.75 -6.68,7.33 -3.18,0.59 -5.09,-2 -4.28,-5.44 0.81,-3.43 3.8,-6.32 6.69,-6.79z"/>
   <path class="fil13" d="M383.04 60.8l-11.69 2.46 5.85 18.48 -12.15 18.44 2.88 -0.5 10.85 -16.46 -5.85 -18.49 10.6 -2.23 -0.49 -1.7zm22.04 -0.19l1.22 -1.85 -15.12 1.99 -5.73 8.44 0.77 2.67 6.53 -9.63 12.33 -1.62zm-59.49 12.19l-0.04 4.52 -1.63 0.36 0.42 -4.95 1.25 0.07zm-162.66 13.13l-13.05 39.42 2.22 -0.48 12.41 -37.46 9.18 -1.73 -0.32 -1.71 -10.44 1.96zm5.62 18.62c0.65,2.36 2.44,8.64 2.52,8.95l0.86 -1.24c-0.71,-2.64 -2.77,-9.81 -2.89,-9.8l-0.49 2.09zm8.83 -0.14l-4.82 19.78 2.08 -0.6 5.72 -23.47 -2.98 4.29zm15.37 -20.92l0.21 -1.64 -10.54 0.93 -7.33 10.48 0.54 2.95 8.36 -11.95 8.76 -0.77zm9.83 -3.14l-9.38 39.27 2.03 -0.41 8.93 -37.39 19.83 -2.61 0 -1.68 -21.41 2.82zm18.56 25.56l0 -1.95 -13.68 4.06 -0.31 2.04 13.99 -4.15zm-3.64 -12.25l0.42 -1.74 -7.84 1.04 -0.33 1.72 7.75 -1.02zm21.61 -17.77l-13.06 39.43 2.22 -0.49 12.41 -37.46 9.18 -1.72 -0.32 -1.72 -10.43 1.96zm5.62 18.62c0.64,2.36 2.43,8.64 2.52,8.95l0.85 -1.24c-0.7,-2.64 -2.77,-9.81 -2.89,-9.8l-0.48 2.09zm8.83 -0.14l-4.82 19.78 2.07 -0.6 5.73 -23.47 -2.98 4.29zm15.36 -20.92l0.21 -1.64 -10.54 0.93 -7.33 10.48 0.55 2.95 8.35 -11.95 8.76 -0.77zm44.22 -8.02l-10.4 42.25c0.03,0 0.73,-0.2 2.09,-0.6l9.89 -40.18 23.21 -2.96 0.34 -1.72 -25.13 3.21zm7.77 23.53l4.79 14.33 0.98 -0.29 -5.46 -16.32 -0.31 2.28z"/>
   <path class="fil14" d="M425 56.64l0 3.41 -35.26 53.35 -29.39 5.15 -1.26 -1.1 -14.99 4.39 -2.13 -1.78 -21.95 6 -4.28 -3.53 -30.02 6.29 -1.29 -1.13 -18.42 5.29 -4.16 -3.39 -19.25 4.2 -2.09 -1.83 -30.59 5.95 -0.64 -0.55 -19.42 5.69 -4.19 -3.42 -19.24 4.2 -10.8 -9.43 0 -3.41 10.8 9.43 19.24 -4.2 4.19 3.42 19.42 -5.69 0.64 0.56 30.59 -5.95 2.09 1.82 19.25 -4.2 4.16 3.4 18.42 -5.29 1.29 1.13 30.02 -6.29 4.28 3.52 21.95 -5.99 2.13 1.78 14.99 -4.39 1.26 1.1 29.39 -5.16 35.26 -53.35zm-263.37 56.11l-20.11 -9.96 -10.47 5.49 -27.33 4.04 -0.22 -2.47c-1.52,0.24 -3.06,0.36 -4.59,0.34l-9.39 6.31 -26.09 8.24 -16.56 -37.55 -2.94 1.26 -18.93 -31.96 0 -3.4 18.93 31.96 2.94 -1.26 16.56 37.54 26.09 -8.23 9.39 -6.31c1.53,0.02 3.07,-0.1 4.59,-0.34l0.22 2.47 27.33 -4.05 10.47 -5.48 21.08 10.44 -0.97 2.92zm30.41 -73.3l0 3.4 -3.66 1.97c-0.67,-0.8 -1.34,-1.57 -2.04,-2.31l5.7 -3.06zm3.25 13.89l0 3.41 -2.93 3.15 -1.72 -1.55 4.65 -5.01zm5.2 13.87l0 3.41 -0.4 0.4 -1.88 0.17 -0.88 -0.79 3.16 -3.19z"/>
  </g>
 </g>
</svg>
